<svg width="81" height="68" viewBox="0 0 81 68" fill="none" xmlns="http://www.w3.org/2000/svg">
<g clip-path="url(#clip0_38_11976)">
<path d="M71.5796 15.61C65.4196 11.08 52.5196 16.11 46.1996 23.34C45.9196 23.66 46.1796 24.16 46.5996 24.11L49.6996 23.78" fill="url(#paint0_linear_38_11976)"/>
<path d="M71.5796 15.61C65.4196 11.08 52.5196 16.11 46.1996 23.34C45.9196 23.66 46.1796 24.16 46.5996 24.11L49.6996 23.78" stroke="white" stroke-width="0.25" stroke-miterlimit="10"/>
<path d="M61.24 35.82C54.81 37.9 49.25 36.81 47.65 36.42C47.4 36.36 47.25 36.1 47.32 35.84L47.82 34" fill="url(#paint1_linear_38_11976)"/>
<path d="M61.24 35.82C54.81 37.9 49.25 36.81 47.65 36.42C47.4 36.36 47.25 36.1 47.32 35.84L47.82 34" stroke="white" stroke-width="0.25" stroke-miterlimit="10"/>
<path d="M36.8599 29.3301L46.2499 30.0601C46.4599 30.0801 46.6499 29.9501 46.7199 29.7601C53.7499 10.9101 71.5799 11.6401 79.9499 21.1601C80.0299 21.2501 80.0699 21.3601 80.0699 21.4801C79.9999 23.5401 78.5099 41.8501 46.8999 33.7701C46.7899 33.7401 46.6599 33.7601 46.5599 33.8101L39.2099 37.8201C38.9999 37.9401 38.7299 37.8701 38.5999 37.6701C35.8899 33.5801 36.1499 30.6901 36.3699 29.6801C36.4199 29.4501 36.6299 29.3001 36.8599 29.3201V29.3301Z" fill="url(#paint2_linear_38_11976)" stroke="white" stroke-width="0.25" stroke-miterlimit="10"/>
<path d="M62.0899 25.92C59.1499 27.97 55.4599 28.66 53.5599 28.89C53.1199 28.94 52.8599 28.41 53.1699 28.1C56.2099 25.05 66.5099 15.61 72.0799 21.72C72.1499 21.8 72.2499 21.86 72.3599 21.87L72.5799 21.9C72.6399 21.9 72.7099 21.9 72.7699 21.88L73.2499 21.74C73.2499 21.74 73.2899 21.73 73.3099 21.72L73.7399 21.53C73.8399 21.48 73.9199 21.4 73.9699 21.31L74.1199 20.99C74.1499 20.93 74.1699 20.86 74.1699 20.79V20.42C74.1699 20.42 74.1699 20.34 74.1499 20.3L74.0499 19.92C74.0299 19.83 73.9699 19.74 73.8999 19.68L73.5299 19.37C66.0599 12.43 52.0499 22.84 47.7099 30.07C47.5099 30.41 47.7899 30.82 48.1799 30.77L48.3999 30.74C48.8799 30.67 49.1299 31.29 48.7399 31.58C48.3699 31.85 48.5699 32.44 49.0299 32.42C56.4199 32.16 60.5299 29.15 62.7099 26.63C63.0699 26.22 62.5399 25.63 62.0899 25.94V25.92Z" fill="url(#paint3_linear_38_11976)" stroke="white" stroke-width="0.25" stroke-miterlimit="10"/>
<path d="M70.2601 27.0601V28.2001C70.2601 28.4201 70.1101 28.6101 69.8901 28.6601L68.6201 28.9401L70.1101 29.2201C70.2001 29.2401 70.2901 29.2801 70.3601 29.3501L70.3801 29.3701C70.7501 29.7501 71.3701 29.3101 71.1301 28.8401L70.2501 27.0601H70.2601Z" fill="url(#paint4_linear_38_11976)" stroke="white" stroke-width="0.25" stroke-miterlimit="10"/>
<path d="M68.2798 28.9601L72.4398 31.4901L70.3698 29.3601C70.2998 29.2901 70.1998 29.2401 70.0998 29.2201L68.2798 28.9601Z" fill="url(#paint5_linear_38_11976)" stroke="white" stroke-width="0.25" stroke-miterlimit="10"/>
<path d="M41.7 37.5301L41.02 38.0501C40.66 38.3201 40.17 37.9801 40.29 37.5501L40.34 37.3801C40.37 37.2601 40.46 37.1601 40.57 37.1001L41.21 36.7501C41.72 36.4701 42.18 37.1801 41.72 37.5301H41.7Z" fill="url(#paint6_linear_38_11976)" stroke="white" stroke-width="0.25" stroke-miterlimit="10"/>
<path d="M42.4897 28.8401L38.7197 27.7001C38.3597 27.5901 38.0297 27.9201 38.1397 28.2801L38.3997 29.1501C38.4497 29.3401 38.6197 29.4701 38.8097 29.4801L42.3197 29.7501C42.8797 29.7901 43.0297 29.0001 42.4897 28.8401Z" fill="url(#paint7_linear_38_11976)" stroke="white" stroke-width="0.25" stroke-miterlimit="10"/>
<path d="M38.0399 30.9601L47.2099 30.8901C47.2099 30.8901 47.2499 30.8901 47.2699 30.8901L48.3899 30.7301C48.8699 30.6601 49.1199 31.2801 48.7299 31.5701L47.5899 32.4101C47.5899 32.4101 47.5599 32.4301 47.5399 32.4401L39.7099 36.8501C39.4799 36.9801 39.1999 36.9001 39.0699 36.6701C38.1199 35.0201 37.6999 32.5601 37.5599 31.5001C37.5199 31.2201 37.7399 30.9701 38.0199 30.9701L38.0399 30.9601Z" fill="url(#paint8_linear_38_11976)" stroke="white" stroke-width="0.25" stroke-miterlimit="10"/>
<path d="M72.1997 21.84C74.3797 22.92 74.9497 20.42 74.0197 19.76V19.85C74.2397 20.79 73.6197 21.91 72.3197 21.83H72.1997" fill="url(#paint9_linear_38_11976)"/>
<path d="M72.1997 21.84C74.3797 22.92 74.9497 20.42 74.0197 19.76V19.85C74.2397 20.79 73.6197 21.91 72.3197 21.83H72.1997" stroke="white" stroke-width="0.25" stroke-miterlimit="10"/>
<path d="M61.2295 45.2C55.0695 40.67 42.1695 45.7 35.8495 52.93C35.5695 53.25 35.8295 53.75 36.2495 53.7L39.3495 53.37" fill="url(#paint10_linear_38_11976)"/>
<path d="M61.2295 45.2C55.0695 40.67 42.1695 45.7 35.8495 52.93C35.5695 53.25 35.8295 53.75 36.2495 53.7L39.3495 53.37" stroke="white" stroke-width="0.25" stroke-miterlimit="10"/>
<path d="M50.8796 65.42C44.4496 67.5 38.8896 66.41 37.2896 66.02C37.0396 65.96 36.8896 65.7 36.9596 65.44L37.4596 63.6" fill="url(#paint11_linear_38_11976)"/>
<path d="M50.8796 65.42C44.4496 67.5 38.8896 66.41 37.2896 66.02C37.0396 65.96 36.8896 65.7 36.9596 65.44L37.4596 63.6" stroke="white" stroke-width="0.25" stroke-miterlimit="10"/>
<path d="M26.5098 58.9301L35.8998 59.6601C36.1098 59.6801 36.2998 59.5501 36.3698 59.3601C43.3998 40.5101 61.2298 41.2401 69.5998 50.7601C69.6798 50.8501 69.7198 50.9601 69.7198 51.0801C69.6498 53.1401 68.1598 71.4501 36.5498 63.3701C36.4398 63.3401 36.3098 63.3601 36.2098 63.4101L28.8598 67.4201C28.6498 67.5401 28.3798 67.4701 28.2498 67.2701C25.5398 63.1801 25.7998 60.2901 26.0198 59.2801C26.0698 59.0501 26.2798 58.9001 26.5098 58.9201V58.9301Z" fill="url(#paint12_linear_38_11976)" stroke="white" stroke-width="0.25" stroke-miterlimit="10"/>
<path d="M51.7398 55.51C48.7998 57.56 45.1098 58.25 43.2098 58.48C42.7698 58.53 42.5098 58 42.8198 57.69C45.8598 54.64 56.1598 45.2 61.7298 51.31C61.7998 51.39 61.8998 51.45 62.0098 51.46L62.2298 51.49C62.2898 51.49 62.3598 51.49 62.4198 51.47L62.8998 51.33C62.8998 51.33 62.9398 51.32 62.9598 51.31L63.3898 51.12C63.4898 51.07 63.5698 50.99 63.6198 50.9L63.7698 50.58C63.7998 50.52 63.8198 50.45 63.8198 50.38V50.01C63.8198 50.01 63.8198 49.93 63.7998 49.89L63.6998 49.51C63.6798 49.42 63.6198 49.33 63.5498 49.27L63.1798 48.96C55.7098 42.02 41.6998 52.43 37.3598 59.66C37.1598 60 37.4398 60.41 37.8298 60.36L38.0498 60.33C38.5298 60.26 38.7798 60.88 38.3898 61.17C38.0198 61.44 38.2198 62.03 38.6798 62.01C46.0698 61.75 50.1798 58.74 52.3598 56.22C52.7198 55.81 52.1898 55.22 51.7398 55.53V55.51Z" fill="url(#paint13_linear_38_11976)" stroke="white" stroke-width="0.25" stroke-miterlimit="10"/>
<path d="M59.9095 56.65V57.79C59.9095 58.01 59.7595 58.2 59.5395 58.25L58.2695 58.53L59.7595 58.81C59.8495 58.83 59.9395 58.87 60.0095 58.94L60.0295 58.96C60.3995 59.34 61.0195 58.9 60.7795 58.43L59.8995 56.65H59.9095Z" fill="url(#paint14_linear_38_11976)" stroke="white" stroke-width="0.25" stroke-miterlimit="10"/>
<path d="M57.9199 58.55L62.0799 61.0801L60.0099 58.9501C59.9399 58.8801 59.8399 58.8301 59.7399 58.8101L57.9199 58.55Z" fill="url(#paint15_linear_38_11976)" stroke="white" stroke-width="0.25" stroke-miterlimit="10"/>
<path d="M31.3499 67.13L30.6699 67.65C30.3099 67.92 29.8199 67.58 29.9399 67.15L29.9899 66.98C30.0199 66.86 30.1099 66.76 30.2199 66.7L30.8599 66.35C31.3699 66.07 31.8299 66.78 31.3699 67.13H31.3499Z" fill="url(#paint16_linear_38_11976)" stroke="white" stroke-width="0.25" stroke-miterlimit="10"/>
<path d="M32.1298 58.4401L28.3598 57.3001C27.9998 57.1901 27.6698 57.5201 27.7798 57.8801L28.0398 58.7501C28.0898 58.9401 28.2598 59.0701 28.4498 59.0801L31.9598 59.3501C32.5198 59.3901 32.6698 58.6001 32.1298 58.4401Z" fill="url(#paint17_linear_38_11976)" stroke="white" stroke-width="0.25" stroke-miterlimit="10"/>
<path d="M27.6898 60.55L36.8598 60.48C36.8598 60.48 36.8998 60.48 36.9198 60.48L38.0398 60.32C38.5198 60.25 38.7698 60.87 38.3798 61.16L37.2398 62C37.2398 62 37.2098 62.02 37.1898 62.03L29.3598 66.44C29.1298 66.57 28.8498 66.49 28.7198 66.26C27.7698 64.61 27.3498 62.15 27.2098 61.09C27.1698 60.81 27.3898 60.56 27.6698 60.56L27.6898 60.55Z" fill="url(#paint18_linear_38_11976)" stroke="white" stroke-width="0.25" stroke-miterlimit="10"/>
<path d="M61.8496 51.44C64.0296 52.52 64.5996 50.02 63.6696 49.36V49.45C63.8896 50.39 63.2696 51.51 61.9696 51.43H61.8496" fill="url(#paint19_linear_38_11976)"/>
<path d="M61.8496 51.44C64.0296 52.52 64.5996 50.02 63.6696 49.36V49.45C63.8896 50.39 63.2696 51.51 61.9696 51.43H61.8496" stroke="white" stroke-width="0.25" stroke-miterlimit="10"/>
<path d="M35.4698 1.85004C29.3098 -2.67996 16.4098 2.35004 10.0898 9.58004C9.80977 9.90004 10.0698 10.4 10.4898 10.35L13.5898 10.02" fill="url(#paint20_linear_38_11976)"/>
<path d="M35.4698 1.85004C29.3098 -2.67996 16.4098 2.35004 10.0898 9.58004C9.80977 9.90004 10.0698 10.4 10.4898 10.35L13.5898 10.02" stroke="white" stroke-width="0.25" stroke-miterlimit="10"/>
<path d="M25.1198 22.06C18.6898 24.14 13.1298 23.05 11.5298 22.66C11.2798 22.6 11.1298 22.34 11.1998 22.08L11.6998 20.24" fill="url(#paint21_linear_38_11976)"/>
<path d="M25.1198 22.06C18.6898 24.14 13.1298 23.05 11.5298 22.66C11.2798 22.6 11.1298 22.34 11.1998 22.08L11.6998 20.24" stroke="white" stroke-width="0.25" stroke-miterlimit="10"/>
<path d="M0.73976 15.58L10.1298 16.31C10.3398 16.33 10.5298 16.2 10.5998 16.01C17.6398 -2.85003 35.4698 -2.11002 43.8398 7.39998C43.9198 7.48998 43.9598 7.59998 43.9598 7.71998C43.8898 9.77998 42.3998 28.09 10.7898 20.01C10.6798 19.98 10.5498 20 10.4498 20.05L3.09976 24.06C2.88976 24.18 2.61976 24.11 2.48976 23.91C-0.22024 19.84 0.02976 16.95 0.24976 15.94C0.29976 15.71 0.50976 15.56 0.73976 15.58Z" fill="url(#paint22_linear_38_11976)" stroke="white" stroke-width="0.25" stroke-miterlimit="10"/>
<path d="M25.9698 12.16C23.0298 14.21 19.3398 14.9 17.4398 15.13C16.9998 15.18 16.7398 14.65 17.0498 14.34C20.0898 11.29 30.3898 1.85002 35.9598 7.96002C36.0298 8.04002 36.1298 8.10001 36.2398 8.11001L36.4598 8.14002C36.5198 8.14002 36.5898 8.14002 36.6498 8.12002L37.1298 7.98002C37.1298 7.98002 37.1698 7.97002 37.1898 7.96002L37.6198 7.77002C37.7198 7.72002 37.7998 7.64002 37.8498 7.55002L37.9998 7.23002C38.0298 7.17002 38.0498 7.10002 38.0498 7.03002V6.66002C38.0498 6.66002 38.0498 6.58002 38.0298 6.54002L37.9298 6.16002C37.9098 6.07002 37.8498 5.98002 37.7798 5.92002L37.4098 5.61002C29.9398 -1.32998 15.9298 9.08001 11.5898 16.31C11.3898 16.65 11.6698 17.06 12.0598 17.01L12.2798 16.98C12.7598 16.91 13.0098 17.53 12.6198 17.82C12.2498 18.09 12.4498 18.68 12.9098 18.66C20.2998 18.4 24.4098 15.39 26.5898 12.87C26.9498 12.46 26.4198 11.87 25.9698 12.18V12.16Z" fill="url(#paint23_linear_38_11976)" stroke="white" stroke-width="0.25" stroke-miterlimit="10"/>
<path d="M34.14 13.3V14.44C34.14 14.66 33.99 14.85 33.77 14.9L32.5 15.18L33.99 15.46C34.08 15.48 34.17 15.52 34.24 15.59L34.26 15.61C34.63 15.99 35.25 15.55 35.01 15.08L34.13 13.3H34.14Z" fill="url(#paint24_linear_38_11976)" stroke="white" stroke-width="0.25" stroke-miterlimit="10"/>
<path d="M32.1597 15.2001L36.3197 17.7301L34.2497 15.6001C34.1797 15.5301 34.0797 15.4801 33.9797 15.4601L32.1597 15.2001Z" fill="url(#paint25_linear_38_11976)" stroke="white" stroke-width="0.25" stroke-miterlimit="10"/>
<path d="M5.57985 23.7701L4.89985 24.2901C4.53985 24.5601 4.04985 24.2201 4.16985 23.7901L4.21985 23.6201C4.24985 23.5001 4.33985 23.4001 4.44985 23.3401L5.08985 22.99C5.59985 22.71 6.05985 23.4201 5.59985 23.7701H5.57985Z" fill="url(#paint26_linear_38_11976)" stroke="white" stroke-width="0.25" stroke-miterlimit="10"/>
<path d="M6.36955 15.0901L2.59955 13.9501C2.23955 13.8401 1.90955 14.1701 2.01955 14.5301L2.27955 15.4001C2.32955 15.5901 2.49955 15.7201 2.68955 15.7301L6.19955 16.0001C6.75955 16.0401 6.90955 15.2501 6.36955 15.0901Z" fill="url(#paint27_linear_38_11976)" stroke="white" stroke-width="0.25" stroke-miterlimit="10"/>
<path d="M1.91977 17.2001L11.0898 17.1301C11.0898 17.1301 11.1298 17.1301 11.1498 17.1301L12.2698 16.9701C12.7498 16.9001 12.9998 17.5201 12.6098 17.8101L11.4698 18.6501C11.4698 18.6501 11.4398 18.6701 11.4198 18.6801L3.58977 23.0901C3.35977 23.2201 3.07977 23.1401 2.94977 22.9101C1.99977 21.2601 1.57977 18.8001 1.43977 17.7401C1.39977 17.4601 1.61977 17.2101 1.89977 17.2101L1.91977 17.2001Z" fill="url(#paint28_linear_38_11976)" stroke="white" stroke-width="0.25" stroke-miterlimit="10"/>
<path d="M36.0796 8.09001C38.2596 9.17001 38.8296 6.67001 37.8996 6.01001V6.10001C38.1196 7.04001 37.4996 8.16001 36.1996 8.08001H36.0796" fill="url(#paint29_linear_38_11976)"/>
<path d="M36.0796 8.09001C38.2596 9.17001 38.8296 6.67001 37.8996 6.01001V6.10001C38.1196 7.04001 37.4996 8.16001 36.1996 8.08001H36.0796" stroke="white" stroke-width="0.25" stroke-miterlimit="10"/>
</g>
<defs>
<linearGradient id="paint0_linear_38_11976" x1="46.0896" y1="18.99" x2="71.5796" y2="18.99" gradientUnits="userSpaceOnUse">
<stop stop-color="#120E3C"/>
<stop offset="0.37" stop-color="#151136"/>
<stop offset="0.82" stop-color="#1E1A27"/>
<stop offset="1" stop-color="#231F20"/>
</linearGradient>
<linearGradient id="paint1_linear_38_11976" x1="47.3" y1="35.53" x2="61.24" y2="35.53" gradientUnits="userSpaceOnUse">
<stop stop-color="#120E3C"/>
<stop offset="0.37" stop-color="#151136"/>
<stop offset="0.82" stop-color="#1E1A27"/>
<stop offset="1" stop-color="#231F20"/>
</linearGradient>
<linearGradient id="paint2_linear_38_11976" x1="36.2399" y1="26.2501" x2="80.0799" y2="26.2501" gradientUnits="userSpaceOnUse">
<stop stop-color="#3953A5"/>
<stop offset="1" stop-color="#120E3C"/>
</linearGradient>
<linearGradient id="paint3_linear_38_11976" x1="47.6399" y1="24.73" x2="74.1699" y2="24.73" gradientUnits="userSpaceOnUse">
<stop stop-color="#120E3C"/>
<stop offset="0.37" stop-color="#151136"/>
<stop offset="0.82" stop-color="#1E1A27"/>
<stop offset="1" stop-color="#231F20"/>
</linearGradient>
<linearGradient id="paint4_linear_38_11976" x1="68.6201" y1="28.2801" x2="71.1901" y2="28.2801" gradientUnits="userSpaceOnUse">
<stop stop-color="#120E3C"/>
<stop offset="0.37" stop-color="#151136"/>
<stop offset="0.82" stop-color="#1E1A27"/>
<stop offset="1" stop-color="#231F20"/>
</linearGradient>
<linearGradient id="paint5_linear_38_11976" x1="68.2798" y1="30.2201" x2="72.4398" y2="30.2201" gradientUnits="userSpaceOnUse">
<stop stop-color="#FCEE1D"/>
<stop offset="0.11" stop-color="#FCEE22"/>
<stop offset="0.24" stop-color="#FCEF31"/>
<stop offset="0.39" stop-color="#FCF14A"/>
<stop offset="0.54" stop-color="#FDF36C"/>
<stop offset="0.7" stop-color="#FDF799"/>
<stop offset="0.87" stop-color="#FEFBCE"/>
<stop offset="1" stop-color="white"/>
</linearGradient>
<linearGradient id="paint6_linear_38_11976" x1="40.27" y1="37.4101" x2="41.89" y2="37.4101" gradientUnits="userSpaceOnUse">
<stop stop-color="#120E3C"/>
<stop offset="0.37" stop-color="#151136"/>
<stop offset="0.82" stop-color="#1E1A27"/>
<stop offset="1" stop-color="#231F20"/>
</linearGradient>
<linearGradient id="paint7_linear_38_11976" x1="38.1197" y1="28.7201" x2="42.8197" y2="28.7201" gradientUnits="userSpaceOnUse">
<stop stop-color="#120E3C"/>
<stop offset="0.37" stop-color="#151136"/>
<stop offset="0.82" stop-color="#1E1A27"/>
<stop offset="1" stop-color="#231F20"/>
</linearGradient>
<linearGradient id="paint8_linear_38_11976" x1="37.5799" y1="33.8101" x2="48.9399" y2="33.8101" gradientUnits="userSpaceOnUse">
<stop stop-color="#FCEE1D"/>
<stop offset="0.11" stop-color="#FCEE22"/>
<stop offset="0.24" stop-color="#FCEF31"/>
<stop offset="0.39" stop-color="#FCF14A"/>
<stop offset="0.54" stop-color="#FDF36C"/>
<stop offset="0.7" stop-color="#FDF799"/>
<stop offset="0.87" stop-color="#FEFBCE"/>
<stop offset="1" stop-color="white"/>
</linearGradient>
<linearGradient id="paint9_linear_38_11976" x1="72.1997" y1="20.93" x2="74.4497" y2="20.93" gradientUnits="userSpaceOnUse">
<stop stop-color="#FCEE1D"/>
<stop offset="0.11" stop-color="#FCEE22"/>
<stop offset="0.24" stop-color="#FCEF31"/>
<stop offset="0.39" stop-color="#FCF14A"/>
<stop offset="0.54" stop-color="#FDF36C"/>
<stop offset="0.7" stop-color="#FDF799"/>
<stop offset="0.87" stop-color="#FEFBCE"/>
<stop offset="1" stop-color="white"/>
</linearGradient>
<linearGradient id="paint10_linear_38_11976" x1="35.7295" y1="48.59" x2="61.2295" y2="48.59" gradientUnits="userSpaceOnUse">
<stop stop-color="#120E3C"/>
<stop offset="0.37" stop-color="#151136"/>
<stop offset="0.82" stop-color="#1E1A27"/>
<stop offset="1" stop-color="#231F20"/>
</linearGradient>
<linearGradient id="paint11_linear_38_11976" x1="36.9496" y1="65.13" x2="50.8796" y2="65.13" gradientUnits="userSpaceOnUse">
<stop stop-color="#120E3C"/>
<stop offset="0.37" stop-color="#151136"/>
<stop offset="0.82" stop-color="#1E1A27"/>
<stop offset="1" stop-color="#231F20"/>
</linearGradient>
<linearGradient id="paint12_linear_38_11976" x1="25.8898" y1="55.8401" x2="69.7298" y2="55.8401" gradientUnits="userSpaceOnUse">
<stop stop-color="#3953A5"/>
<stop offset="1" stop-color="#120E3C"/>
</linearGradient>
<linearGradient id="paint13_linear_38_11976" x1="37.2898" y1="54.33" x2="63.8198" y2="54.33" gradientUnits="userSpaceOnUse">
<stop stop-color="#120E3C"/>
<stop offset="0.37" stop-color="#151136"/>
<stop offset="0.82" stop-color="#1E1A27"/>
<stop offset="1" stop-color="#231F20"/>
</linearGradient>
<linearGradient id="paint14_linear_38_11976" x1="58.2695" y1="57.88" x2="60.8295" y2="57.88" gradientUnits="userSpaceOnUse">
<stop stop-color="#120E3C"/>
<stop offset="0.37" stop-color="#151136"/>
<stop offset="0.82" stop-color="#1E1A27"/>
<stop offset="1" stop-color="#231F20"/>
</linearGradient>
<linearGradient id="paint15_linear_38_11976" x1="57.9199" y1="59.8201" x2="62.0899" y2="59.8201" gradientUnits="userSpaceOnUse">
<stop stop-color="#FCEE1D"/>
<stop offset="0.11" stop-color="#FCEE22"/>
<stop offset="0.24" stop-color="#FCEF31"/>
<stop offset="0.39" stop-color="#FCF14A"/>
<stop offset="0.54" stop-color="#FDF36C"/>
<stop offset="0.7" stop-color="#FDF799"/>
<stop offset="0.87" stop-color="#FEFBCE"/>
<stop offset="1" stop-color="white"/>
</linearGradient>
<linearGradient id="paint16_linear_38_11976" x1="29.9199" y1="67.01" x2="31.5399" y2="67.01" gradientUnits="userSpaceOnUse">
<stop stop-color="#120E3C"/>
<stop offset="0.37" stop-color="#151136"/>
<stop offset="0.82" stop-color="#1E1A27"/>
<stop offset="1" stop-color="#231F20"/>
</linearGradient>
<linearGradient id="paint17_linear_38_11976" x1="27.7698" y1="58.3201" x2="32.4698" y2="58.3201" gradientUnits="userSpaceOnUse">
<stop stop-color="#120E3C"/>
<stop offset="0.37" stop-color="#151136"/>
<stop offset="0.82" stop-color="#1E1A27"/>
<stop offset="1" stop-color="#231F20"/>
</linearGradient>
<linearGradient id="paint18_linear_38_11976" x1="27.2198" y1="63.4" x2="38.5798" y2="63.4" gradientUnits="userSpaceOnUse">
<stop stop-color="#FCEE1D"/>
<stop offset="0.11" stop-color="#FCEE22"/>
<stop offset="0.24" stop-color="#FCEF31"/>
<stop offset="0.39" stop-color="#FCF14A"/>
<stop offset="0.54" stop-color="#FDF36C"/>
<stop offset="0.7" stop-color="#FDF799"/>
<stop offset="0.87" stop-color="#FEFBCE"/>
<stop offset="1" stop-color="white"/>
</linearGradient>
<linearGradient id="paint19_linear_38_11976" x1="61.8496" y1="50.53" x2="64.0996" y2="50.53" gradientUnits="userSpaceOnUse">
<stop stop-color="#FCEE1D"/>
<stop offset="0.11" stop-color="#FCEE22"/>
<stop offset="0.24" stop-color="#FCEF31"/>
<stop offset="0.39" stop-color="#FCF14A"/>
<stop offset="0.54" stop-color="#FDF36C"/>
<stop offset="0.7" stop-color="#FDF799"/>
<stop offset="0.87" stop-color="#FEFBCE"/>
<stop offset="1" stop-color="white"/>
</linearGradient>
<linearGradient id="paint20_linear_38_11976" x1="9.96977" y1="5.24004" x2="35.4698" y2="5.24004" gradientUnits="userSpaceOnUse">
<stop stop-color="#120E3C"/>
<stop offset="0.37" stop-color="#151136"/>
<stop offset="0.82" stop-color="#1E1A27"/>
<stop offset="1" stop-color="#231F20"/>
</linearGradient>
<linearGradient id="paint21_linear_38_11976" x1="11.1798" y1="21.77" x2="25.1198" y2="21.77" gradientUnits="userSpaceOnUse">
<stop stop-color="#120E3C"/>
<stop offset="0.37" stop-color="#151136"/>
<stop offset="0.82" stop-color="#1E1A27"/>
<stop offset="1" stop-color="#231F20"/>
</linearGradient>
<linearGradient id="paint22_linear_38_11976" x1="0.11976" y1="12.49" x2="43.9598" y2="12.49" gradientUnits="userSpaceOnUse">
<stop stop-color="#3953A5"/>
<stop offset="1" stop-color="#120E3C"/>
</linearGradient>
<linearGradient id="paint23_linear_38_11976" x1="11.5198" y1="10.98" x2="38.0498" y2="10.98" gradientUnits="userSpaceOnUse">
<stop stop-color="#120E3C"/>
<stop offset="0.37" stop-color="#151136"/>
<stop offset="0.82" stop-color="#1E1A27"/>
<stop offset="1" stop-color="#231F20"/>
</linearGradient>
<linearGradient id="paint24_linear_38_11976" x1="32.5" y1="14.53" x2="35.07" y2="14.53" gradientUnits="userSpaceOnUse">
<stop stop-color="#120E3C"/>
<stop offset="0.37" stop-color="#151136"/>
<stop offset="0.82" stop-color="#1E1A27"/>
<stop offset="1" stop-color="#231F20"/>
</linearGradient>
<linearGradient id="paint25_linear_38_11976" x1="32.1597" y1="16.4701" x2="36.3197" y2="16.4701" gradientUnits="userSpaceOnUse">
<stop stop-color="#FCEE1D"/>
<stop offset="0.11" stop-color="#FCEE22"/>
<stop offset="0.24" stop-color="#FCEF31"/>
<stop offset="0.39" stop-color="#FCF14A"/>
<stop offset="0.54" stop-color="#FDF36C"/>
<stop offset="0.7" stop-color="#FDF799"/>
<stop offset="0.87" stop-color="#FEFBCE"/>
<stop offset="1" stop-color="white"/>
</linearGradient>
<linearGradient id="paint26_linear_38_11976" x1="4.14985" y1="23.6601" x2="5.76985" y2="23.6601" gradientUnits="userSpaceOnUse">
<stop stop-color="#120E3C"/>
<stop offset="0.37" stop-color="#151136"/>
<stop offset="0.82" stop-color="#1E1A27"/>
<stop offset="1" stop-color="#231F20"/>
</linearGradient>
<linearGradient id="paint27_linear_38_11976" x1="1.99955" y1="14.9701" x2="6.69955" y2="14.9701" gradientUnits="userSpaceOnUse">
<stop stop-color="#120E3C"/>
<stop offset="0.37" stop-color="#151136"/>
<stop offset="0.82" stop-color="#1E1A27"/>
<stop offset="1" stop-color="#231F20"/>
</linearGradient>
<linearGradient id="paint28_linear_38_11976" x1="1.45977" y1="20.0501" x2="12.8198" y2="20.0501" gradientUnits="userSpaceOnUse">
<stop stop-color="#FCEE1D"/>
<stop offset="0.11" stop-color="#FCEE22"/>
<stop offset="0.24" stop-color="#FCEF31"/>
<stop offset="0.39" stop-color="#FCF14A"/>
<stop offset="0.54" stop-color="#FDF36C"/>
<stop offset="0.7" stop-color="#FDF799"/>
<stop offset="0.87" stop-color="#FEFBCE"/>
<stop offset="1" stop-color="white"/>
</linearGradient>
<linearGradient id="paint29_linear_38_11976" x1="36.0796" y1="7.18001" x2="38.3296" y2="7.18001" gradientUnits="userSpaceOnUse">
<stop stop-color="#FCEE1D"/>
<stop offset="0.11" stop-color="#FCEE22"/>
<stop offset="0.24" stop-color="#FCEF31"/>
<stop offset="0.39" stop-color="#FCF14A"/>
<stop offset="0.54" stop-color="#FDF36C"/>
<stop offset="0.7" stop-color="#FDF799"/>
<stop offset="0.87" stop-color="#FEFBCE"/>
<stop offset="1" stop-color="white"/>
</linearGradient>
<clipPath id="clip0_38_11976">
<rect width="80.21" height="67.86" fill="white"/>
</clipPath>
</defs>
</svg>
