<svg width="798" height="450" viewBox="0 0 798 450" fill="none" xmlns="http://www.w3.org/2000/svg">
<g clip-path="url(#clip0_38_11950)">
<path d="M132.46 78.77C111.29 56.31 79.4098 32.69 19.6098 14.59C53.2298 57.74 54.3498 142.64 54.3498 142.64C53.7698 218.92 0.549805 269.29 0.549805 269.29C45.1498 275.16 96.3898 260.27 132.44 246.25C110.24 250.33 70.0498 138.43 132.45 78.77H132.46Z" fill="url(#paint0_linear_38_11950)" stroke="#835B5A" stroke-width="0.5" stroke-miterlimit="10"/>
<path d="M525.44 395.88C525.44 395.88 502.59 426.85 421.89 442.54C421.89 442.54 518.1 469.22 568.62 414.51C570.21 412.79 571.76 410.99 573.25 409.11C573.25 409.11 553.43 403.41 525.43 395.89L525.44 395.88Z" fill="url(#paint1_linear_38_11950)"/>
<path d="M568.62 414.51C518.1 469.22 421.89 442.54 421.89 442.54C502.59 426.85 525.44 395.88 525.44 395.88L525.43 395.89C553.43 403.41 573.25 409.11 573.25 409.11C571.76 410.99 570.21 412.79 568.62 414.51ZM568.62 414.51C514.4 459.53 469.73 429.52 469.73 429.52" stroke="#835B5A" stroke-width="0.5" stroke-miterlimit="10"/>
<path d="M525.44 395.88C553.44 403.41 573.26 409.1 573.26 409.1L566.85 373.05L525.44 395.88Z" fill="url(#paint2_linear_38_11950)" stroke="#835B5A" stroke-width="0.5" stroke-miterlimit="10"/>
<path d="M241.05 257.21C232.11 257.15 224.07 257.49 216.78 258.14C189.43 290.26 250.92 351.58 336.43 364.06C343.59 363.34 350.81 362.29 358.07 360.84C316.83 359.05 307.75 302.52 241.05 257.22V257.21Z" fill="url(#paint3_linear_38_11950)" stroke="#835B5A" stroke-width="0.5" stroke-miterlimit="10"/>
<path d="M216.78 257.09C92.4799 268.19 202.4 376.43 336.43 363.01C250.93 350.54 189.43 289.21 216.78 257.09Z" fill="url(#paint4_linear_38_11950)" stroke="#835B5A" stroke-width="0.5" stroke-miterlimit="10"/>
<path d="M241.05 256.16C307.75 301.46 316.84 357.99 358.07 359.78C509.31 329.71 241.05 256.16 241.05 256.16Z" fill="url(#paint5_linear_38_11950)" stroke="#835B5A" stroke-width="0.5" stroke-miterlimit="10"/>
<path d="M609.09 109.32L609.1 109.29C588.19 44.8599 465.8 7.7399 355.26 1.2699C296.42 15.3999 197.83 66.1399 238.78 142.74C241.84 144.83 244.97 146.94 248.25 149.08C352.76 136.78 414.76 -10.4801 609.1 109.31L609.09 109.32Z" fill="url(#paint6_linear_38_11950)" stroke="#835B5A" stroke-width="0.5" stroke-miterlimit="10"/>
<path d="M355.26 1.26995C209.74 -7.25005 84.7698 37.36 238.78 142.74C197.83 66.14 296.41 15.4 355.26 1.26995Z" fill="url(#paint7_linear_38_11950)" stroke="#835B5A" stroke-width="0.5" stroke-miterlimit="10"/>
<path d="M466.04 276.1C509.75 336.25 572.51 294.78 596.05 327.28L615.85 299.28V297.4C569.53 256.16 466.04 276.1 466.04 276.1Z" fill="url(#paint8_linear_38_11950)" stroke="#835B5A" stroke-width="0.5" stroke-miterlimit="10"/>
<path d="M715.85 205.88C705.01 186.91 689.97 168.09 667.4 150.35C646.69 134.08 627.32 120.55 609.09 109.31C608.66 110.78 541.25 340.3 248.24 149.08C174.05 157.81 171.59 120.28 132.46 78.76C70.0498 138.42 110.25 250.32 132.45 246.24C160.05 235.51 178.76 225.29 178.76 225.29C204.08 234.19 224.37 244.82 241.06 256.16C241.06 256.16 509.32 329.71 358.08 359.78C391.7 361.24 472.96 381.76 525.45 395.87L566.86 373.04L573.27 409.09C573.27 409.09 616.18 408.04 664.43 403.88C588.22 354.59 622.3 214.9 715.87 205.87L715.85 205.88ZM615.85 299.28L596.05 327.28C572.51 294.78 509.75 336.25 466.04 276.1C466.04 276.1 569.52 256.15 615.85 297.4V299.28Z" fill="url(#paint9_linear_38_11950)" stroke="#835B5A" stroke-width="0.5" stroke-miterlimit="10"/>
<path d="M609.09 109.32C414.74 -10.47 352.75 136.79 248.24 149.09C541.25 340.31 608.66 110.79 609.09 109.32Z" fill="url(#paint10_linear_38_11950)" stroke="#835B5A" stroke-width="0.5" stroke-miterlimit="10"/>
<path d="M670.97 290.98C670.97 290.98 670.96 290.98 670.95 290.98L671.67 289.07L671.9 288.6C673.27 285.19 674.84 281.93 676.63 278.82L676.81 278.44L676.95 278.23C678.74 275.17 680.72 272.25 682.89 269.48L682.92 269.43L682.94 269.4C684.16 267.84 685.45 266.33 686.79 264.86L686.96 264.66C686.96 264.66 686.98 264.66 686.99 264.66C698.19 252.37 713.15 243.13 730.19 236.41L715.88 205.91C715.88 205.91 715.88 205.89 715.87 205.88C622.3 214.91 588.22 354.6 664.43 403.89C664.46 403.89 664.49 403.89 664.52 403.89L688.47 401.59C688.59 401.58 688.7 401.56 688.82 401.55C664.61 353.84 661.24 317.81 670.98 290.99L670.97 290.98Z" fill="url(#paint11_linear_38_11950)" stroke="#835B5A" stroke-width="0.5" stroke-miterlimit="10"/>
<path d="M788.45 355.3C759.58 332.84 751.11 301.2 740.41 266.6C716.29 271.67 710 294.4 670.97 290.98C661.22 317.8 664.59 353.84 688.81 401.54C755.83 394.35 821.11 380.71 788.45 355.3Z" fill="url(#paint12_linear_38_11950)" stroke="#835B5A" stroke-width="0.5" stroke-miterlimit="10"/>
<path d="M707.17 260.97C700.95 261.28 694.14 262.36 686.98 264.67C686.92 264.74 686.85 264.81 686.79 264.87L682.94 269.41C682.94 269.41 682.9 269.46 682.88 269.49L676.94 278.24C676.83 278.43 676.73 278.63 676.62 278.83L671.89 288.61C671.57 289.4 671.26 290.19 670.96 291C709.98 294.42 716.27 271.69 740.4 266.62C740.4 266.62 726.71 260.01 707.17 260.99V260.97ZM699.49 286.1C695.08 286.1 691.5 280.68 691.5 273.99C691.5 267.3 695.08 261.88 699.49 261.88C703.9 261.88 707.48 267.3 707.48 273.99C707.48 280.68 703.9 286.1 699.49 286.1Z" fill="#101536" stroke="#835B5A" stroke-width="0.5" stroke-miterlimit="10"/>
<path d="M699.49 261.88C695.08 261.88 691.5 267.3 691.5 273.99C691.5 280.68 695.08 286.1 699.49 286.1C703.9 286.1 707.48 280.68 707.48 273.99C707.48 267.3 703.9 261.88 699.49 261.88Z" fill="white" stroke="#835B5A" stroke-width="0.5" stroke-miterlimit="10"/>
<path d="M702.9 264.8C700.69 264.8 698.91 268.05 698.91 272.07C698.91 276.09 700.7 279.34 702.9 279.34C705.1 279.34 706.89 276.09 706.89 272.07C706.89 268.05 705.1 264.8 702.9 264.8Z" fill="#101536" stroke="#835B5A" stroke-width="0.5" stroke-miterlimit="10"/>
<path d="M797.01 368.99C797.55 363.91 794.04 358.61 788.45 355.31L783.85 351.5L778.58 346.51L772.76 340L767.83 333.45L762.91 325.66L759.65 319.65C745.74 324.96 738.5 339.48 736.99 354.24C758.88 372.12 795.68 369.11 797.02 368.99H797.01Z" fill="url(#paint13_linear_38_11950)" stroke="#835B5A" stroke-width="0.5" stroke-miterlimit="10"/>
<path d="M736.98 354.24C735.32 370.56 740.69 387.18 751.93 391.96L765.22 388.68L775.8 385.34L784.09 381.89L789.55 378.81L793.39 375.75C795.63 373.7 796.76 371.37 797.02 368.99C795.68 369.11 758.88 372.12 736.99 354.24H736.98Z" fill="url(#paint14_linear_38_11950)" stroke="#835B5A" stroke-width="0.5" stroke-miterlimit="10"/>
<path d="M686.99 264.67C694.14 262.37 700.96 261.28 707.18 260.97C726.72 259.99 740.41 266.6 740.41 266.6C737.36 256.73 734.12 246.62 730.18 236.41C713.14 243.13 698.19 252.38 686.98 264.66L686.99 264.67Z" fill="url(#paint15_linear_38_11950)" stroke="#835B5A" stroke-width="0.5" stroke-miterlimit="10"/>
</g>
<defs>
<linearGradient id="paint0_linear_38_11950" x1="0.549805" y1="142.6" x2="132.46" y2="142.6" gradientUnits="userSpaceOnUse">
<stop stop-color="#045C77"/>
<stop offset="0.1" stop-color="#12657E"/>
<stop offset="0.28" stop-color="#397F93"/>
<stop offset="0.54" stop-color="#79A8B4"/>
<stop offset="0.85" stop-color="#CEE0E1"/>
<stop offset="1" stop-color="#FAFCF8"/>
</linearGradient>
<linearGradient id="paint1_linear_38_11950" x1="421.9" y1="422.46" x2="573.26" y2="422.46" gradientUnits="userSpaceOnUse">
<stop stop-color="#20617A"/>
<stop offset="0.11" stop-color="#2E5D73"/>
<stop offset="0.33" stop-color="#555363"/>
<stop offset="0.62" stop-color="#944249"/>
<stop offset="0.99" stop-color="#EA2C25"/>
<stop offset="1" stop-color="#EE2C24"/>
</linearGradient>
<linearGradient id="paint2_linear_38_11950" x1="525.44" y1="391.08" x2="573.26" y2="391.08" gradientUnits="userSpaceOnUse">
<stop stop-color="#A41E21"/>
<stop offset="0.23" stop-color="#B12C21"/>
<stop offset="0.65" stop-color="#D45321"/>
<stop offset="1" stop-color="#F47721"/>
</linearGradient>
<linearGradient id="paint3_linear_38_11950" x1="210.21" y1="310.62" x2="358.07" y2="310.62" gradientUnits="userSpaceOnUse">
<stop stop-color="#F7AD1A"/>
<stop offset="0.17" stop-color="#F59E1B"/>
<stop offset="0.48" stop-color="#F3771E"/>
<stop offset="0.92" stop-color="#EE3822"/>
<stop offset="1" stop-color="#EE2C24"/>
</linearGradient>
<linearGradient id="paint4_linear_38_11950" x1="162.44" y1="310.62" x2="336.43" y2="310.62" gradientUnits="userSpaceOnUse">
<stop stop-color="#045C77"/>
<stop offset="0.1" stop-color="#12657E"/>
<stop offset="0.28" stop-color="#397F93"/>
<stop offset="0.54" stop-color="#79A8B4"/>
<stop offset="0.85" stop-color="#CEE0E1"/>
<stop offset="1" stop-color="#FAFCF8"/>
</linearGradient>
<linearGradient id="paint5_linear_38_11950" x1="241.05" y1="307.98" x2="404.3" y2="307.98" gradientUnits="userSpaceOnUse">
<stop offset="0.68" stop-color="#A41E21"/>
<stop offset="0.75" stop-color="#B12C21"/>
<stop offset="0.89" stop-color="#D45321"/>
<stop offset="1" stop-color="#F47721"/>
</linearGradient>
<linearGradient id="paint6_linear_38_11950" x1="229.1" y1="75.1799" x2="609.1" y2="75.1799" gradientUnits="userSpaceOnUse">
<stop stop-color="#F7AD1A"/>
<stop offset="0.17" stop-color="#F59E1B"/>
<stop offset="0.48" stop-color="#F3771E"/>
<stop offset="0.92" stop-color="#EE3822"/>
<stop offset="1" stop-color="#EE2C24"/>
</linearGradient>
<linearGradient id="paint7_linear_38_11950" x1="168.15" y1="71.5" x2="355.26" y2="71.5" gradientUnits="userSpaceOnUse">
<stop stop-color="#045C77"/>
<stop offset="0.1" stop-color="#12657E"/>
<stop offset="0.28" stop-color="#397F93"/>
<stop offset="0.54" stop-color="#79A8B4"/>
<stop offset="0.85" stop-color="#CEE0E1"/>
<stop offset="1" stop-color="#FAFCF8"/>
</linearGradient>
<linearGradient id="paint8_linear_38_11950" x1="466.04" y1="299.28" x2="615.85" y2="299.28" gradientUnits="userSpaceOnUse">
<stop stop-color="#A41E21"/>
<stop offset="0.2" stop-color="#A52023"/>
<stop offset="0.34" stop-color="#A8292C"/>
<stop offset="0.47" stop-color="#AE393B"/>
<stop offset="0.58" stop-color="#B74E51"/>
<stop offset="0.68" stop-color="#C36A6C"/>
<stop offset="0.78" stop-color="#D18D8E"/>
<stop offset="0.87" stop-color="#E1B6B7"/>
<stop offset="0.96" stop-color="#F4E4E4"/>
<stop offset="1" stop-color="white"/>
</linearGradient>
<linearGradient id="paint9_linear_38_11950" x1="-1023.6" y1="-906.35" x2="-1023.6" y2="-906.35" gradientUnits="userSpaceOnUse">
<stop stop-color="#A41E21"/>
<stop offset="0.23" stop-color="#B12C21"/>
<stop offset="0.65" stop-color="#D45321"/>
<stop offset="1" stop-color="#F47721"/>
</linearGradient>
<linearGradient id="paint10_linear_38_11950" x1="428.67" y1="225.13" x2="428.67" y2="62.66" gradientUnits="userSpaceOnUse">
<stop stop-color="#A41E21"/>
<stop offset="0.23" stop-color="#B12C21"/>
<stop offset="0.65" stop-color="#D45321"/>
<stop offset="1" stop-color="#F47721"/>
</linearGradient>
<linearGradient id="paint11_linear_38_11950" x1="622.53" y1="304.89" x2="730.18" y2="304.89" gradientUnits="userSpaceOnUse">
<stop stop-color="#73B8D5"/>
<stop offset="0.03" stop-color="#79B1CC"/>
<stop offset="0.29" stop-color="#A28290"/>
<stop offset="0.52" stop-color="#C25C61"/>
<stop offset="0.72" stop-color="#DA4240"/>
<stop offset="0.89" stop-color="#E8312B"/>
<stop offset="1" stop-color="#EE2C24"/>
</linearGradient>
<linearGradient id="paint12_linear_38_11950" x1="665.88" y1="334.07" x2="797.13" y2="334.07" gradientUnits="userSpaceOnUse">
<stop stop-color="#F7AD1A"/>
<stop offset="0.17" stop-color="#F59E1B"/>
<stop offset="0.48" stop-color="#F3771E"/>
<stop offset="0.92" stop-color="#EE3822"/>
<stop offset="1" stop-color="#EE2C24"/>
</linearGradient>
<linearGradient id="paint13_linear_38_11950" x1="736.98" y1="344.45" x2="797.06" y2="344.45" gradientUnits="userSpaceOnUse">
<stop stop-color="#DF2D26"/>
<stop offset="0.16" stop-color="#E23D24"/>
<stop offset="0.49" stop-color="#EC6921"/>
<stop offset="0.93" stop-color="#FBAF1B"/>
<stop offset="1" stop-color="#FEBB1B"/>
</linearGradient>
<linearGradient id="paint14_linear_38_11950" x1="736.68" y1="373.1" x2="797.01" y2="373.1" gradientUnits="userSpaceOnUse">
<stop stop-color="#DF2D26"/>
<stop offset="0.16" stop-color="#E23D24"/>
<stop offset="0.49" stop-color="#EC6921"/>
<stop offset="0.93" stop-color="#FBAF1B"/>
<stop offset="1" stop-color="#FEBB1B"/>
</linearGradient>
<linearGradient id="paint15_linear_38_11950" x1="686.99" y1="251.51" x2="740.41" y2="251.51" gradientUnits="userSpaceOnUse">
<stop stop-color="#F7AD1A"/>
<stop offset="0.17" stop-color="#F59E1B"/>
<stop offset="0.48" stop-color="#F3771E"/>
<stop offset="0.92" stop-color="#EE3822"/>
<stop offset="1" stop-color="#EE2C24"/>
</linearGradient>
<clipPath id="clip0_38_11950">
<rect width="797.38" height="449.29" fill="white"/>
</clipPath>
</defs>
</svg>
