<svg width="835" height="374" viewBox="0 0 835 374" fill="none" xmlns="http://www.w3.org/2000/svg">
<g clip-path="url(#clip0_38_11748)">
<path d="M403.62 244.71L405.03 246.62L406.54 248.02L410.58 250.57L411.78 252.48L410.72 253.63H409.39L407.06 252.48L405.03 250.31L402.81 247.76L400.5 246.36L399.48 244.15V242.32L400.16 240.48H403.07L406.55 241.13L410.59 244.15L413.85 245.89L416.14 248.94L420.98 252.36L423.79 255.17L424.56 258.46L427.75 259.64H433.75L436.22 261.01V265.26L439.11 266.87L443.58 270.62L447.28 272.56L449.32 275.24L453.15 278.67L460.3 283.14L467.19 287.61L472.04 290.04L473.95 288.77L471.91 286.27L468.46 283.27L466.59 281.61C466.59 281.61 464.44 279.06 463.32 278.42C462.2 277.78 460.67 275.25 460.67 275.25L458.37 273.19L458.63 270.38L462.2 269.74L465.14 273.95L466.03 277.14C466.03 277.14 471.77 281.1 472.03 281.48C472.29 281.86 482.24 288.76 482.24 288.76L501.13 301.39L520.87 313.02C711.83 400.32 834.45 356.66 834.45 356.66C705.18 401.85 556.31 340.1 556.31 340.1C514.92 313.33 494.57 317.41 494.57 317.41L495.07 315.1C495.07 315.1 492.39 311.47 492.26 311.28C492.13 311.09 488.05 307.67 488.05 307.67L478.35 302.79L466.59 296.73L457.99 290.28L447.08 284.02C447.08 284.02 430.42 270.42 430.1 270.11C429.78 269.8 421.72 262.77 421.72 262.77L416.96 261.88L414.91 258.47L414.72 256.91C414.72 256.91 418.49 261.05 418.93 261.02C419.37 260.99 422.44 258.82 422.44 258.82L417.84 254.73L414.65 252.3L406.22 245.15L403.6 243.81V244.7L403.62 244.71Z" fill="url(#paint0_linear_38_11748)" stroke="white" stroke-miterlimit="10"/>
<path d="M52.4096 141.18C52.4096 141.18 65.9397 132.24 74.6197 148.07L78.1897 143.22C86.4197 130.12 94.7096 118.12 103.07 108.18C74.5396 109.57 48.5596 115.75 39.6396 132.24L44.7496 139.26C45.6396 148.83 54.3196 146.92 52.4096 141.17V141.18Z" fill="url(#paint1_linear_38_11748)" stroke="white" stroke-miterlimit="10"/>
<path d="M506.43 301.14L510.38 301.4L507.29 298.36L532.92 305.86C532.92 305.86 496.66 292.58 479.56 280.58L495.65 284.67L476.25 274.97C485.7 253.78 477.27 238.71 458.63 248.16C458.63 248.16 394.54 138.63 439.99 0.5H439.01C366.59 7.2 342.33 73.27 200.25 115.9C200.25 115.9 194.94 114.88 186.24 113.57C227.03 162.89 253.11 226.26 394.04 288.13L397.86 290.22C406.29 290.79 420.26 300.37 405.33 300.56L417.18 316.09L427.83 327.17C456.55 367.38 474.46 320.66 497.05 317.31C519.65 313.96 550.67 336.17 558.23 340.1C565.79 344.03 506.43 301.13 506.43 301.13V301.14Z" fill="url(#paint2_linear_38_11748)" stroke="white" stroke-miterlimit="10"/>
<path d="M388.63 45.72C389.77 44 398.18 38.36 399.35 39.07C400.52 39.78 397.96 41.27 398.64 43.22C399.61 46 395.42 43.9 393.52 44.95C390.4 46.68 386.53 48.9 388.63 45.72Z" fill="white"/>
<path d="M271.91 172.13C273.05 170.41 281.46 164.77 282.63 165.48C283.8 166.19 281.24 167.68 281.92 169.63C282.89 172.41 278.7 170.31 276.8 171.36C273.68 173.09 269.81 175.31 271.91 172.13Z" fill="white"/>
<path d="M358.14 81.8899C358.86 79.1299 367.99 69.0999 369.98 70.2799C371.97 71.4599 368.87 74.2499 370.64 77.5599C373.12 82.2199 366.39 78.8099 364.23 80.5899C360.83 83.3899 356.86 86.8099 358.14 81.8999V81.8899Z" fill="white"/>
<path d="M344.85 221.15C345.57 218.39 354.7 208.36 356.69 209.54C358.68 210.72 355.58 213.51 357.35 216.82C359.83 221.48 353.1 218.07 350.94 219.85C347.54 222.65 343.57 226.07 344.85 221.16V221.15Z" fill="white"/>
<path d="M218.94 147.74C219.66 144.98 228.79 134.95 230.78 136.13C232.77 137.31 229.67 140.1 231.44 143.41C233.92 148.07 227.19 144.66 225.03 146.44C221.63 149.24 217.66 152.66 218.94 147.75V147.74Z" fill="white"/>
<path d="M441.25 326.82C441.97 324.06 451.1 314.03 453.09 315.21C455.1 316.4 451.98 319.18 453.75 322.49C456.23 327.15 449.5 323.74 447.34 325.52C443.94 328.32 439.97 331.74 441.25 326.83V326.82Z" fill="white"/>
<path d="M375.04 269.27C375.76 266.51 384.89 256.48 386.88 257.66C388.87 258.84 385.77 261.63 387.54 264.94C390.02 269.6 383.29 266.19 381.13 267.97C377.73 270.77 373.76 274.19 375.04 269.28V269.27Z" fill="white"/>
<path d="M487.63 307.66C488.35 304.9 497.48 294.87 499.47 296.05C501.46 297.23 498.36 300.02 500.13 303.33C502.61 307.99 495.88 304.58 493.72 306.36C490.32 309.16 486.35 312.58 487.63 307.67V307.66Z" fill="white"/>
<path d="M338.07 79.8299C339.21 78.1099 347.62 72.4699 348.79 73.1799C349.96 73.8899 347.4 75.3799 348.08 77.3299C349.05 80.1099 344.86 78.0099 342.96 79.0599C339.84 80.7899 335.97 83.0099 338.07 79.8299Z" fill="white"/>
<path d="M395.33 229.79C397.07 230.67 404.99 233.03 404.97 232.42C404.95 231.81 402.63 231.22 401.42 229.9C399.69 228.01 399.5 229.94 397.9 229.56C395.33 228.95 392.17 228.18 395.33 229.79Z" fill="white"/>
<path d="M382.14 51.34C383.89 50.26 392.31 52.89 392.91 54.12C393.51 55.35 393.88 56.06 392.87 57.85C391.42 60.42 386.79 54.18 383.96 54.86C380.87 55.6 377.67 54.1 382.14 51.33V51.34Z" fill="white"/>
<path d="M349.8 64.08C351.55 63 359.97 65.63 360.57 66.86C361.17 68.09 361.54 68.8 360.53 70.59C359.08 73.16 354.45 66.92 351.62 67.6C348.53 68.34 345.33 66.84 349.8 64.07V64.08Z" fill="white"/>
<path d="M412.59 65.4799C411.16 66.9699 416.53 76.4299 409.26 67.0699C406.57 63.6099 421.24 46.3999 423.13 47.2099C425.84 48.3799 421.99 59.1599 421.09 56.3899C419.54 51.6299 417.44 60.4399 412.59 65.4799Z" fill="white"/>
<path d="M400.99 120.34C399.56 121.83 404.93 131.29 397.66 121.93C394.97 118.47 409.64 101.26 411.53 102.07C414.24 103.24 410.39 114.02 409.49 111.25C407.94 106.49 405.84 115.3 400.99 120.34Z" fill="white"/>
<path d="M374.55 250.47C373.12 251.96 378.49 261.42 371.22 252.06C368.53 248.6 383.2 231.39 385.09 232.2C387.8 233.37 383.95 244.15 383.05 241.38C381.5 236.62 379.4 245.43 374.55 250.47Z" fill="white"/>
<path d="M389.18 252.22C387.75 253.71 393.12 263.17 385.85 253.81C383.16 250.35 397.83 233.14 399.72 233.95C402.43 235.12 398.58 245.9 397.68 243.13C396.13 238.37 394.03 247.18 389.18 252.22Z" fill="white"/>
<path d="M405.24 46.83C406.38 45.11 408.13 44.22 409.3 44.94C410.47 45.66 409.41 47.81 410.03 49.78C410.85 52.43 407.76 44.39 402.99 54.57C401.48 57.8 403.14 50.01 405.25 46.83H405.24Z" fill="white"/>
<path d="M401.81 13.44C399.75 13.56 430.09 2.76998 431.26 3.47998C432.43 4.18998 415.26 14.11 416.3 12.34C422.1 2.43998 389.18 26.3 387.42 23.99C385.26 21.16 410.34 12.94 401.81 13.44Z" fill="white"/>
<path d="M432.08 326.77C432.45 328.8 418.01 300.02 418.57 298.77C419.13 297.52 431.09 313.34 429.2 312.53C418.66 307.99 446.39 337.72 444.32 339.75C441.77 342.24 430.53 318.36 432.08 326.77Z" fill="white"/>
<path d="M390.29 29.44C391.43 27.72 393.18 26.83 394.35 27.55C395.52 28.27 393.83 30.08 394.51 32.03C395.48 34.81 391.51 33.06 390.45 33.92C387.69 36.17 388.18 32.62 390.29 29.44Z" fill="white"/>
<path d="M354.16 45.8999C355.3 44.1799 357.05 43.2899 358.22 44.0099C359.39 44.7299 357.7 46.5399 358.38 48.4899C359.35 51.2699 355.38 49.5199 354.32 50.3799C351.56 52.6299 352.05 49.0799 354.16 45.8999Z" fill="white"/>
<path d="M401.68 21.0499C402.82 19.3299 404.57 18.4399 405.74 19.1599C406.91 19.8799 409.3 25.3899 405.9 23.6399C403.28 22.2899 402.9 24.6699 401.84 25.5299C399.08 27.7799 399.57 24.2299 401.68 21.0499Z" fill="white"/>
<path d="M75.4797 113.64C77.5397 113.74 79.9597 111.87 81.1297 112.59C82.2997 113.31 84.3697 117.07 81.0997 115.09C78.6797 113.63 75.3097 125.36 76.1897 119.3C76.7297 115.57 71.4997 113.45 75.4897 113.64H75.4797Z" fill="white"/>
<path d="M376.43 31.66C374.39 31.95 379.72 24.23 380.89 24.94C382.06 25.65 388.54 29.29 383.09 29.53C381.02 29.62 382.57 33.16 381.32 33.74C378.09 35.24 381.38 30.95 376.43 31.66Z" fill="white"/>
<path d="M412.1 79.45C410.06 79.74 415.39 72.02 416.56 72.73C417.73 73.44 424.21 77.08 418.76 77.32C416.69 77.41 418.24 80.95 416.99 81.53C413.76 83.03 417.05 78.74 412.1 79.45Z" fill="white"/>
<path d="M363.39 37.6C361.59 36.59 370.27 30.01 371.43 30.72C372.59 31.43 367.74 33.82 371.43 35.18C375.5 36.67 368.1 36.84 368.29 38.21C369.12 44.04 365.92 39.04 363.38 37.6H363.39Z" fill="white"/>
<path d="M363.83 60.27C362.03 59.26 370.71 52.68 371.87 53.39C373.03 54.1 368.18 56.49 371.87 57.85C375.94 59.34 368.54 59.51 368.73 60.88C369.56 66.71 366.36 61.71 363.82 60.27H363.83Z" fill="white"/>
<path d="M410.27 92.5099C408.47 91.4999 417.15 84.9199 418.31 85.6299C419.47 86.3399 414.62 88.7299 418.31 90.0899C422.38 91.5799 414.98 91.7499 415.17 93.1199C416 98.9499 412.8 93.9499 410.26 92.5099H410.27Z" fill="white"/>
<path d="M373.43 41.7C375.29 40.82 380.94 35.16 382.11 35.87C383.28 36.58 376.24 41.59 382.11 40.33C386.35 39.42 382.69 42.47 381.48 43.13C376.79 45.67 370.94 42.88 373.43 41.7Z" fill="white"/>
<path d="M327.47 69.95C329.33 69.07 334.98 63.41 336.15 64.12C337.32 64.83 330.28 69.84 336.15 68.58C340.39 67.67 336.73 70.72 335.52 71.38C330.83 73.92 324.98 71.13 327.47 69.95Z" fill="white"/>
<path d="M385.57 228.02C386.83 228.27 392.91 230.79 392.84 230.21C392.77 229.63 386.62 227.69 389.62 227.58C391.87 227.5 388.29 226.23 387.38 226.03C383.94 225.26 383.92 227.7 385.57 228.02Z" fill="white"/>
<path d="M344.98 60.05C346.84 59.17 359.83 50.14 357.03 55.22C355.71 57.61 363.63 63.42 350.76 59.24C346.64 57.9 348.56 64.55 344.27 65.56C339.08 66.78 342.49 61.23 344.99 60.05H344.98Z" fill="white"/>
<path d="M400.41 130.14C402.27 129.26 415.26 120.23 412.46 125.31C411.14 127.7 419.06 133.51 406.19 129.33C402.07 127.99 403.99 134.64 399.7 135.65C394.51 136.87 397.92 131.32 400.42 130.14H400.41Z" fill="white"/>
<path d="M336.16 55.1299C338.02 54.2499 351.01 45.2199 348.21 50.2999C346.89 52.6899 354.81 58.4999 341.94 54.3199C337.82 52.9799 339.74 59.6299 335.45 60.6399C330.26 61.8599 333.67 56.3099 336.17 55.1299H336.16Z" fill="white"/>
<path d="M380.62 61.7399C379.51 61.5699 376.67 61.6099 376.55 63.6699C376.33 67.4899 375.2 68.7999 378.53 69.6099C380.84 70.0199 380.86 72.2999 383.35 69.1099C385.07 66.9099 387.2 70.7099 387.29 64.6899C387.36 60.2199 383.76 61.0499 383.18 61.1699M384.38 66.2899C382.37 62.9599 381.61 68.5799 380.29 68.2199C378.93 66.9699 378.32 66.0499 379.35 64.8599C380.67 63.3399 382.72 63.1499 383.92 62.8799C385.3 63.8299 385.41 67.9999 384.38 66.2899ZM384.38 83.6899C382.37 80.3599 381.61 85.9799 380.29 85.6199C378.93 84.3699 378.32 83.4499 379.35 82.2599C380.67 80.7399 382.72 80.5499 383.92 80.2799C385.3 81.2299 385.41 85.3999 384.38 83.6899ZM373.08 109.71C371.07 106.38 370.31 112 368.99 111.64C367.63 110.39 367.02 109.47 368.05 108.28C369.37 106.76 371.42 106.57 372.62 106.3C374 107.25 374.11 111.42 373.08 109.71ZM404.83 275.98C402.82 272.65 402.06 278.27 400.74 277.91C399.38 276.66 398.77 275.74 399.8 274.55C401.12 273.03 403.17 272.84 404.37 272.57C405.75 273.52 405.86 277.69 404.83 275.98Z" fill="white"/>
<path d="M397.53 68.2299C396.42 68.0599 393.58 68.0999 393.46 70.1599C393.24 73.9799 392.11 75.2899 395.44 76.0999C397.75 76.5099 397.77 78.7899 400.26 75.5999C401.98 73.3999 404.11 77.1999 404.2 71.1799C404.27 66.7099 400.67 67.5399 400.09 67.6599M411.37 267.59C410.26 267.42 407.42 267.46 407.3 269.52C407.08 273.34 405.95 274.65 409.28 275.46C411.59 275.87 411.61 278.15 414.1 274.96C415.82 272.76 417.95 276.56 418.04 270.54C418.11 266.07 414.51 266.9 413.93 267.02M383.37 98.3699C381.36 95.0399 380.6 100.66 379.28 100.3C377.92 99.0499 377.31 98.1299 378.34 96.9399C379.66 95.4199 381.71 95.2299 382.91 94.9599C384.29 95.9099 384.4 100.08 383.37 98.3699Z" fill="white"/>
<path d="M318.52 164.85C316.76 160.74 315.07 163.24 314.03 162.34C313.71 162.07 312.89 162.11 312.89 162.11C312.53 162.11 312.32 162.11 311.23 162.13C309.86 162.14 306.18 163.59 306.06 165.65C305.84 169.47 307.18 169.81 310.52 170.63C311.66 171.18 313.3 171.16 317.34 171.23C318.71 171.26 319.69 167.56 318.53 164.85H318.52ZM315.19 223.8C313.43 219.69 311.74 222.19 310.7 221.29C310.38 221.02 309.56 221.06 309.56 221.06C309.2 221.06 308.99 221.06 307.9 221.08C306.53 221.09 302.85 222.54 302.73 224.6C302.51 228.42 303.85 228.76 307.19 229.58C308.33 230.13 309.97 230.11 314.01 230.18C315.38 230.21 316.36 226.51 315.2 223.8H315.19ZM315.74 168.59C312.93 165.89 312.05 168.68 310.73 168.31C309.37 167.06 309.09 166.39 310.12 165.2C311.44 163.68 312.55 163.95 313.74 163.68C315.12 164.63 316.57 169.4 315.73 168.59H315.74ZM324.62 219.37C321.81 216.67 320.93 219.46 319.61 219.09C318.25 217.84 317.97 217.17 319 215.98C320.32 214.46 321.43 214.73 322.62 214.46C324 215.41 325.45 220.18 324.61 219.37H324.62Z" fill="white"/>
<path d="M324.35 82.3199C325.49 80.5999 333.9 74.9599 335.07 75.6699C336.24 76.3799 333.68 77.8699 334.36 79.8199C335.33 82.5999 331.14 80.4999 329.24 81.5499C326.12 83.2799 322.25 85.4999 324.35 82.3199Z" fill="white"/>
<path d="M320.18 120.47C321.32 118.75 329.73 113.11 330.9 113.82C332.07 114.53 329.51 116.02 330.19 117.97C331.16 120.75 326.97 118.65 325.07 119.7C321.95 121.43 318.08 123.65 320.18 120.47Z" fill="white"/>
<path d="M346.03 255.67C347.17 253.95 355.58 248.31 356.75 249.02C357.92 249.73 355.36 251.22 356.04 253.17C357.01 255.95 352.82 253.85 350.92 254.9C347.8 256.63 343.93 258.85 346.03 255.67Z" fill="white"/>
<path d="M359.32 263.57C360.46 261.85 368.87 256.21 370.04 256.92C371.21 257.63 368.65 259.12 369.33 261.07C370.3 263.85 366.11 261.75 364.21 262.8C361.09 264.53 357.22 266.75 359.32 263.57Z" fill="white"/>
<path d="M309.15 78.2999C311.01 77.4199 316.66 71.7599 317.83 72.4699C319 73.1799 311.96 78.1899 317.83 76.9299C322.07 76.0199 318.41 79.0699 317.2 79.7299C312.51 82.2699 306.66 79.4799 309.15 78.2999Z" fill="white"/>
<path d="M305.41 127.05C307.27 126.17 312.92 120.51 314.09 121.22C315.26 121.93 308.22 126.94 314.09 125.68C318.33 124.77 314.67 127.82 313.46 128.48C308.77 131.02 302.92 128.23 305.41 127.05Z" fill="white"/>
<path d="M311.45 86.89C309.69 82.78 308 85.28 306.96 84.38C306.64 84.11 305.82 84.15 305.82 84.15C305.46 84.15 305.25 84.15 304.16 84.17C302.79 84.18 299.11 85.63 298.99 87.69C298.77 91.51 300.11 91.85 303.45 92.67C304.59 93.22 306.23 93.2 310.27 93.27C311.64 93.3 312.62 89.6 311.46 86.89H311.45ZM308.67 90.63C305.86 87.93 304.98 90.72 303.66 90.35C302.3 89.1 302.02 88.43 303.05 87.24C304.37 85.72 305.48 85.99 306.67 85.72C308.05 86.67 309.5 91.44 308.66 90.63H308.67Z" fill="white"/>
<path d="M407.44 30.93C406.87 28.95 414.96 30.22 416.13 30.93C417.3 31.64 411.12 33.69 413.43 34.59C416.17 35.67 407.39 39.1 404.57 40.15C401.44 41.31 408.75 35.5 407.43 30.93H407.44Z" fill="white"/>
<path d="M427.58 10.66C434.59 10.15 433.43 9.42996 434.59 10.15C435.75 10.87 431.5 11.63 429.58 12.41C426.06 13.84 430.38 15.15 428.48 16.21C425.36 17.94 423.77 10.95 427.57 10.67L427.58 10.66Z" fill="white"/>
<path d="M416.84 20.8099C411.37 21.9299 421.83 14.8799 422.12 16.2199C427.73 41.8799 417.71 50.7099 420.58 40.1199C421.58 36.4499 424.54 20.6999 415.44 26.1099C412.38 27.9299 421.18 19.9199 416.84 20.8099Z" fill="white"/>
<path d="M393.78 60.18C394.92 58.46 398.18 58.91 402.97 59.3C404.33 59.41 405.92 51.98 407.66 53.08C410.78 55.06 408.57 59.79 407.42 61.94C405.41 65.7 391.36 63.81 393.78 60.18Z" fill="white"/>
<path d="M314.03 239.68C315.17 237.96 318.43 238.41 323.22 238.8C324.58 238.91 326.17 231.48 327.91 232.58C331.03 234.56 328.82 239.29 327.67 241.44C325.66 245.2 311.61 243.31 314.03 239.68Z" fill="white"/>
<path d="M379.69 115.72C380.83 114 384.09 114.45 388.88 114.84C390.24 114.95 391.83 107.52 393.57 108.62C396.69 110.6 394.48 115.33 393.33 117.48C391.32 121.24 377.27 119.35 379.69 115.72Z" fill="white"/>
<path d="M293.04 101.37C294.79 100.29 303.21 102.92 303.81 104.15C304.41 105.38 304.78 106.09 303.77 107.88C302.32 110.45 297.69 104.21 294.86 104.89C291.77 105.63 288.57 104.13 293.04 101.36V101.37Z" fill="white"/>
<path d="M249.55 101.89C251.3 100.81 259.72 103.44 260.32 104.67C260.92 105.9 261.29 106.61 260.28 108.4C258.83 110.97 254.2 104.73 251.37 105.41C248.28 106.15 245.08 104.65 249.55 101.88V101.89Z" fill="white"/>
<path d="M234.78 130.59C236.53 129.51 244.95 132.14 245.55 133.37C246.15 134.6 246.52 135.31 245.51 137.1C244.06 139.67 239.43 133.43 236.6 134.11C233.51 134.85 230.31 133.35 234.78 130.58V130.59Z" fill="white"/>
<path d="M207.33 129.67C209.08 128.59 217.5 131.22 218.1 132.45C218.7 133.68 219.07 134.39 218.06 136.18C216.61 138.75 211.98 132.51 209.15 133.19C206.06 133.93 202.86 132.43 207.33 129.66V129.67Z" fill="white"/>
<path d="M316.39 155.04C317.12 154.65 323.43 158.2 324.22 159.18C325.01 160.16 325.48 160.72 325.39 161.71C325.26 163.1 320.27 157.93 318.7 157.8C317.02 157.66 314.57 156.02 316.39 155.04Z" fill="white"/>
<path d="M315.87 154.09C317.56 152.92 326.11 155.1 326.77 156.3C327.43 157.5 327.84 158.18 326.93 160.03C325.62 162.67 320.67 156.69 317.87 157.52C314.82 158.43 311.55 157.09 315.87 154.09Z" fill="white"/>
<path d="M316.13 96.86C317.27 95.14 319.02 94.25 320.19 94.97C321.36 95.69 320.3 97.84 320.92 99.81C321.74 102.46 318.65 94.42 313.88 104.6C312.37 107.83 314.03 100.04 316.14 96.86H316.13Z" fill="white"/>
<path d="M272.01 91.7599C273.15 90.0399 274.9 89.1499 276.07 89.8699C277.24 90.5899 276.18 92.7399 276.8 94.7099C277.62 97.3599 274.53 89.3199 269.76 99.4999C268.25 102.73 269.91 94.9399 272.02 91.7599H272.01Z" fill="white"/>
<path d="M284.32 91.7301C286.18 90.8501 291.83 85.1901 293 85.9001C294.17 86.6101 287.13 91.6201 293 90.3601C297.24 89.4501 293.58 92.5001 292.37 93.1601C287.68 95.7001 281.83 92.9101 284.32 91.7301Z" fill="white"/>
<path d="M291.51 111.77C290.4 111.6 287.56 111.64 287.44 113.7C287.22 117.52 286.09 118.83 289.42 119.64C291.73 120.05 291.75 122.33 294.24 119.14C295.96 116.94 298.09 120.74 298.18 114.72C298.25 110.25 294.65 111.08 294.07 111.2M295.27 116.32C293.26 112.99 292.5 118.61 291.18 118.25C289.82 117 289.21 116.08 290.24 114.89C291.56 113.37 293.61 113.18 294.81 112.91C296.19 113.86 296.3 118.03 295.27 116.32ZM87.5397 125.02C85.5297 121.69 84.7697 127.31 83.4497 126.95C82.0897 125.7 81.4797 124.78 82.5097 123.59C83.8297 122.07 85.8797 121.88 87.0797 121.61C88.4597 122.56 88.5697 126.73 87.5397 125.02Z" fill="white"/>
<path d="M387.83 141.01C386.72 140.84 383.88 140.88 383.76 142.94C383.54 146.76 382.41 148.07 385.74 148.88C388.05 149.29 388.07 151.57 390.56 148.38C392.28 146.18 394.41 149.98 394.5 143.96C394.57 139.49 390.97 140.32 390.39 140.44M391.59 145.57C389.58 142.24 388.82 147.86 387.5 147.5C386.14 146.25 385.53 145.33 386.56 144.14C387.88 142.62 389.93 142.43 391.13 142.16C392.51 143.11 392.62 147.28 391.59 145.57ZM391.85 196.88C389.84 193.55 389.08 199.17 387.76 198.81C386.4 197.56 385.79 196.64 386.82 195.45C388.14 193.93 390.19 193.74 391.39 193.47C392.77 194.42 392.88 198.59 391.85 196.88ZM410.61 141.75C408.6 138.42 407.84 144.04 406.52 143.68C405.16 142.43 404.55 141.51 405.58 140.32C406.9 138.8 408.95 138.61 410.15 138.34C411.53 139.29 411.64 143.46 410.61 141.75ZM474.04 311.08C472.03 307.75 471.27 313.37 469.95 313.01C468.59 311.76 467.98 310.84 469.01 309.65C470.33 308.13 472.38 307.94 473.58 307.67C474.96 308.62 475.07 312.79 474.04 311.08ZM410.61 164.49C408.6 161.16 407.84 166.78 406.52 166.42C405.16 165.17 404.55 164.25 405.58 163.06C406.9 161.54 408.95 161.35 410.15 161.08C411.53 162.03 411.64 166.2 410.61 164.49Z" fill="white"/>
<path d="M350.54 188.44C349.43 188.27 346.59 188.31 346.47 190.37C346.25 194.19 345.12 195.5 348.45 196.31C350.76 196.72 350.78 199 353.27 195.81C354.99 193.61 357.12 197.41 357.21 191.39C357.28 186.92 353.68 187.75 353.1 187.87M354.3 192.99C352.29 189.66 351.53 195.28 350.21 194.92C348.85 193.67 348.24 192.75 349.27 191.56C350.59 190.04 352.64 189.85 353.84 189.58C355.22 190.53 355.33 194.7 354.3 192.99ZM340.57 195.67C338.56 192.34 337.8 197.96 336.48 197.6C335.12 196.35 334.51 195.43 335.54 194.24C336.86 192.72 338.91 192.53 340.11 192.26C341.49 193.21 341.6 197.38 340.57 195.67ZM373.32 189.18C371.31 185.85 370.55 191.47 369.23 191.11C367.87 189.86 367.26 188.94 368.29 187.75C369.61 186.23 371.66 186.04 372.86 185.77C374.24 186.72 374.35 190.89 373.32 189.18ZM373.32 211.92C371.31 208.59 370.55 214.21 369.23 213.85C367.87 212.6 367.26 211.68 368.29 210.49C369.61 208.97 371.66 208.78 372.86 208.51C374.24 209.46 374.35 213.63 373.32 211.92Z" fill="white"/>
<path d="M384.98 178.28C383.87 178.11 381.03 178.15 380.91 180.21C380.69 184.03 379.56 185.34 382.89 186.15C385.2 186.56 385.22 188.84 387.71 185.65C389.43 183.45 391.56 187.25 391.65 181.23C391.72 176.76 388.12 177.59 387.54 177.71M388.74 182.83C386.73 179.5 385.97 185.12 384.65 184.76C383.29 183.51 382.68 182.59 383.71 181.4C385.03 179.88 387.08 179.69 388.28 179.42C389.66 180.37 389.77 184.54 388.74 182.83ZM407.75 179.02C405.74 175.69 404.98 181.31 403.66 180.95C402.3 179.7 401.69 178.78 402.72 177.59C404.04 176.07 406.09 175.88 407.29 175.61C408.67 176.56 408.78 180.73 407.75 179.02ZM407.75 201.75C405.74 198.42 404.98 204.04 403.66 203.68C402.3 202.43 401.69 201.51 402.72 200.32C404.04 198.8 406.09 198.61 407.29 198.34C408.67 199.29 408.78 203.46 407.75 201.75Z" fill="white"/>
<path d="M445.43 241.3C444.32 241.13 441.48 241.17 441.36 243.23C441.14 247.05 440.01 248.36 443.34 249.17C445.65 249.58 445.67 251.86 448.16 248.67C449.88 246.47 452.01 250.27 452.1 244.25C452.17 239.78 448.57 240.61 447.99 240.73M449.19 245.86C447.18 242.53 446.42 248.15 445.1 247.79C443.74 246.54 443.13 245.62 444.16 244.43C445.48 242.91 447.53 242.72 448.73 242.45C450.11 243.4 450.22 247.57 449.19 245.86Z" fill="white"/>
<path d="M312.99 184.07C311.88 183.9 309.04 183.94 308.92 186C308.7 189.82 307.57 191.13 310.9 191.94C313.21 192.35 313.23 194.63 315.72 191.44C317.44 189.24 319.57 193.04 319.66 187.02C319.73 182.55 316.13 183.38 315.55 183.5M316.75 188.62C314.74 185.29 313.98 190.91 312.66 190.55C311.3 189.3 310.69 188.38 311.72 187.19C313.04 185.67 315.09 185.48 316.29 185.21C317.67 186.16 317.78 190.33 316.75 188.62ZM335.77 207.54C333.76 204.21 333 209.83 331.68 209.47C330.32 208.22 329.71 207.3 330.74 206.11C332.06 204.59 334.11 204.4 335.31 204.13C336.69 205.08 336.8 209.25 335.77 207.54Z" fill="white"/>
<path d="M403.54 85.4999C404.68 83.7799 406.43 82.8899 407.6 83.6099C408.77 84.3299 407.08 86.1399 407.76 88.0899C408.73 90.8699 404.76 89.1199 403.7 89.9799C400.94 92.2299 401.43 88.6799 403.54 85.4999Z" fill="white"/>
<path d="M393.41 85.1C394.55 83.38 396.3 82.49 397.47 83.21C398.64 83.93 396.95 85.74 397.63 87.69C398.6 90.47 394.63 88.72 393.57 89.58C390.81 91.83 391.3 88.28 393.41 85.1Z" fill="white"/>
<path d="M362.48 227.39C364.54 227.49 366.3 226.61 366.41 225.25C366.52 223.89 364.07 224.16 362.91 222.46C361.25 220.03 360.3 224.26 358.98 224.6C355.53 225.49 358.68 227.2 362.48 227.39Z" fill="white"/>
<path d="M377.71 209.54C379.02 209.66 385.45 211.92 385.34 211.21C385.23 210.5 378.76 208.98 381.85 208.39C384.17 207.95 380.39 206.9 379.44 206.78C375.85 206.33 376 209.38 377.72 209.54H377.71Z" fill="white"/>
<path d="M394.36 99.6401C396.22 98.7601 409.21 89.7301 406.41 94.8101C405.09 97.2001 413.01 103.01 400.14 98.8301C396.02 97.4901 397.94 104.14 393.65 105.15C388.46 106.37 391.87 100.82 394.37 99.6401H394.36Z" fill="white"/>
<path d="M391.57 221.69C393 221.91 405.99 225.44 400.5 222.59C397.98 221.28 396.78 215.88 394.55 221.16C393.88 222.74 389.52 218.23 387.09 218.43C384.26 218.66 389.69 221.41 391.56 221.7L391.57 221.69Z" fill="white"/>
<path d="M416.67 293.17C418.1 293.39 431.09 296.92 425.6 294.07C423.08 292.76 421.88 287.36 419.65 292.64C418.98 294.22 414.62 289.71 412.19 289.91C409.36 290.14 414.79 292.89 416.66 293.18L416.67 293.17Z" fill="white"/>
<path d="M331.95 232C333.77 231.02 341.67 229.84 341.79 228.48C341.91 227.12 333.7 229.81 338.2 225.84C341.45 222.97 336.82 224.1 335.57 224.68C330.74 226.95 329.52 233.31 331.94 232H331.95Z" fill="white"/>
<path d="M468.57 306.45C470.39 305.47 478.29 304.29 478.41 302.93C478.53 301.57 470.32 304.26 474.82 300.29C478.07 297.42 473.44 298.55 472.19 299.13C467.36 301.4 466.14 307.76 468.56 306.45H468.57Z" fill="white"/>
<path d="M376.19 214.91C377.42 215.07 383.49 217.35 383.38 216.69C383.27 216.03 377.18 214.43 380.07 214C382.24 213.68 378.68 212.59 377.79 212.45C374.42 211.92 374.58 214.7 376.2 214.91H376.19Z" fill="white"/>
<path d="M286.63 100.32C284.87 96.21 283.18 98.71 282.14 97.81C281.82 97.54 281 97.58 281 97.58C280.64 97.58 280.43 97.58 279.34 97.6C277.97 97.61 274.29 99.06 274.17 101.12C273.95 104.94 275.29 105.28 278.63 106.1C279.77 106.65 281.41 106.63 285.45 106.7C286.82 106.73 287.8 103.03 286.64 100.32H286.63ZM283.84 104.06C281.03 101.36 280.15 104.15 278.83 103.78C277.47 102.53 277.19 101.86 278.22 100.67C279.54 99.15 280.65 99.42 281.84 99.15C283.22 100.1 284.67 104.87 283.83 104.06H283.84Z" fill="white"/>
<path d="M248.58 109.79C246.82 105.68 245.13 108.18 244.09 107.28C243.77 107.01 242.95 107.05 242.95 107.05C242.59 107.05 242.38 107.05 241.29 107.07C239.92 107.08 236.24 108.53 236.12 110.59C235.9 114.41 237.24 114.75 240.58 115.57C241.72 116.12 243.36 116.1 247.4 116.17C248.77 116.2 249.75 112.5 248.59 109.79H248.58ZM245.8 113.53C242.99 110.83 242.11 113.62 240.79 113.25C239.43 112 239.15 111.33 240.18 110.14C241.5 108.62 242.61 108.89 243.8 108.62C245.18 109.57 246.63 114.34 245.79 113.53H245.8Z" fill="white"/>
<path d="M248.37 143.36C246.61 139.25 244.92 141.75 243.88 140.85C243.56 140.58 242.74 140.62 242.74 140.62C242.38 140.62 242.17 140.62 241.08 140.64C239.71 140.65 236.03 142.1 235.91 144.16C235.69 147.98 237.03 148.32 240.37 149.14C241.51 149.69 243.15 149.67 247.19 149.74C248.56 149.77 249.54 146.07 248.38 143.36H248.37ZM245.59 147.1C242.78 144.4 241.9 147.19 240.58 146.82C239.22 145.57 238.94 144.9 239.97 143.71C241.29 142.19 242.4 142.46 243.59 142.19C244.97 143.14 246.42 147.91 245.58 147.1H245.59Z" fill="white"/>
<path d="M271.11 164.36C269.35 160.25 267.66 162.75 266.62 161.85C266.3 161.58 265.48 161.62 265.48 161.62C265.12 161.62 264.91 161.62 263.82 161.64C262.45 161.65 258.77 163.1 258.65 165.16C258.43 168.98 259.77 169.32 263.11 170.14C264.25 170.69 265.89 170.67 269.93 170.74C271.3 170.77 272.28 167.07 271.12 164.36H271.11ZM268.33 168.1C265.52 165.4 264.64 168.19 263.32 167.82C261.96 166.57 261.68 165.9 262.71 164.71C264.03 163.19 265.14 163.46 266.33 163.19C267.71 164.14 269.16 168.91 268.32 168.1H268.33Z" fill="white"/>
<path d="M279.23 199.82C277.47 195.71 275.78 198.21 274.74 197.31C274.42 197.04 273.6 197.08 273.6 197.08C273.24 197.08 273.03 197.08 271.94 197.1C270.57 197.11 266.89 198.56 266.77 200.62C266.55 204.44 267.89 204.78 271.23 205.6C272.37 206.15 274.01 206.13 278.05 206.2C279.42 206.23 280.4 202.53 279.24 199.82H279.23ZM276.45 203.56C273.64 200.86 272.76 203.65 271.44 203.28C270.08 202.03 269.8 201.36 270.83 200.17C272.15 198.65 273.26 198.92 274.45 198.65C275.83 199.6 277.28 204.37 276.44 203.56H276.45Z" fill="white"/>
<path d="M443.8 311.52C442.04 307.41 440.35 309.91 439.31 309.01C438.99 308.74 438.17 308.78 438.17 308.78C437.81 308.78 437.6 308.78 436.51 308.8C435.14 308.81 431.46 310.26 431.34 312.32C431.12 316.14 432.46 316.48 435.8 317.3C436.94 317.85 438.58 317.83 442.62 317.9C443.99 317.93 444.97 314.23 443.81 311.52H443.8ZM441.01 315.26C438.2 312.56 437.32 315.35 436 314.98C434.64 313.73 434.36 313.06 435.39 311.87C436.71 310.35 437.82 310.62 439.01 310.35C440.39 311.3 441.84 316.07 441 315.26H441.01Z" fill="white"/>
<path d="M449.64 298.69C447.88 294.58 446.19 297.08 445.15 296.18C444.83 295.91 444.01 295.95 444.01 295.95C443.65 295.95 443.44 295.95 442.35 295.97C440.98 295.98 437.3 297.43 437.18 299.49C436.96 303.31 438.3 303.65 441.64 304.47C442.78 305.02 444.42 305 448.46 305.07C449.83 305.1 450.81 301.4 449.65 298.69H449.64ZM446.85 302.43C444.04 299.73 443.16 302.52 441.84 302.15C440.48 300.9 440.2 300.23 441.23 299.04C442.55 297.52 443.66 297.79 444.85 297.52C446.23 298.47 447.68 303.24 446.84 302.43H446.85Z" fill="white"/>
<path d="M304.67 110.21C305.81 108.49 309.07 108.94 313.86 109.33C315.22 109.44 316.81 102.01 318.55 103.11C321.67 105.09 319.46 109.82 318.31 111.97C316.3 115.73 302.25 113.84 304.67 110.21Z" fill="white"/>
<path d="M288.01 171.62C289.06 169.85 292.34 170.12 297.14 170.26C298.51 170.3 299.7 162.79 301.49 163.8C304.71 165.61 302.76 170.45 301.72 172.66C299.91 176.52 285.78 175.38 288.01 171.63V171.62Z" fill="white"/>
<path d="M295.2 208.4C296.25 206.63 299.53 206.9 304.33 207.04C305.7 207.08 306.89 199.57 308.68 200.58C311.9 202.39 309.95 207.23 308.91 209.44C307.1 213.3 292.97 212.16 295.2 208.41V208.4Z" fill="white"/>
<path d="M297.68 150.14C297.67 149.24 299.54 150.08 302.25 151.15C303.03 151.46 301.26 146.82 302.63 147.86C305.1 149.74 305.51 152.47 305.62 153.65C305.79 155.67 297.71 152 297.68 150.14Z" fill="white"/>
<path d="M71.3599 127.77C71.3499 126.87 73.2199 127.71 75.9299 128.78C76.7099 129.09 74.9399 124.45 76.3099 125.49C78.7799 127.37 79.1899 130.1 79.2999 131.28C79.4699 133.3 71.3899 129.63 71.3599 127.77Z" fill="white"/>
<path d="M325.73 166.15C326.78 164.38 332.82 162.63 336.37 164.03C337.4 164.44 337.42 157.32 339.21 158.33C342.43 160.14 340.48 164.98 339.44 167.19C337.63 171.05 323.5 169.91 325.73 166.16V166.15Z" fill="white"/>
<path d="M326.75 180.53C327.8 178.76 333.84 177.01 337.39 178.41C338.42 178.82 338.44 171.7 340.23 172.71C343.45 174.52 341.5 179.36 340.46 181.57C338.65 185.43 324.52 184.29 326.75 180.54V180.53Z" fill="white"/>
<path d="M335.18 238.9C336.23 237.13 342.27 235.38 345.82 236.78C346.85 237.19 346.87 230.07 348.66 231.08C351.88 232.89 349.93 237.73 348.89 239.94C347.08 243.8 332.95 242.66 335.18 238.91V238.9Z" fill="white"/>
<path d="M313.54 197.18C314.59 195.41 320.63 193.66 324.18 195.06C325.21 195.47 325.23 188.35 327.02 189.36C330.24 191.17 328.29 196.01 327.25 198.22C325.44 202.08 311.31 200.94 313.54 197.19V197.18Z" fill="white"/>
<path d="M254.47 188.01C255.52 186.24 261.56 184.49 265.11 185.89C266.14 186.3 266.16 179.18 267.95 180.19C271.17 182 269.22 186.84 268.18 189.05C266.37 192.91 252.24 191.77 254.47 188.02V188.01Z" fill="white"/>
<path d="M337.47 93.3399C338.61 91.6199 347.02 85.9799 348.19 86.6899C349.36 87.3999 346.8 88.8899 347.48 90.8399C348.45 93.6199 344.26 91.5199 342.36 92.5699C339.24 94.2999 335.37 96.5199 337.47 93.3399Z" fill="white"/>
<path d="M330.99 98.9599C332.74 97.8799 341.16 100.51 341.76 101.74C342.36 102.97 342.73 103.68 341.72 105.47C340.27 108.04 335.64 101.8 332.81 102.48C329.72 103.22 326.52 101.72 330.99 98.9499V98.9599Z" fill="white"/>
<path d="M354.08 94.4501C355.22 92.7301 356.97 91.8401 358.14 92.5601C359.31 93.2801 358.25 95.4301 358.87 97.4001C359.69 100.05 356.6 92.0101 351.83 102.19C350.32 105.42 351.98 97.6301 354.09 94.4501H354.08Z" fill="white"/>
<path d="M276.08 177.75C277.22 176.03 278.97 175.14 280.14 175.86C281.31 176.58 280.25 178.73 280.87 180.7C281.69 183.35 278.6 175.31 273.83 185.49C272.32 188.72 273.98 180.93 276.09 177.75H276.08Z" fill="white"/>
<path d="M326.7 149.56C325.84 149.2 321.65 146.82 322.29 148.38C323.46 151.22 327.48 152.06 330.17 153.39C332.01 154.21 333.21 162.24 334.01 160.54C334.58 159.34 334.22 155.69 332.31 151.04C330.84 147.47 328.32 147.9 327.93 147.87" fill="white"/>
<path d="M349.62 175.27C348.72 174.85 344.44 172.29 344.92 173.65C345.79 176.12 350.12 177.41 352.9 178.89C354.81 179.83 354.95 186.48 356.09 185.24C356.9 184.36 357.04 181.37 355.61 177.34C354.51 174.25 351.66 174.2 351.23 174.12" fill="white"/>
<path d="M218.26 126.83C217.36 126.41 213.08 123.85 213.56 125.21C214.43 127.68 218.76 128.97 221.54 130.45C223.45 131.39 223.59 138.04 224.73 136.8C225.54 135.92 225.68 132.93 224.25 128.9C223.15 125.81 220.3 125.76 219.87 125.68" fill="white"/>
<path d="M410.61 192.09C409.5 191.92 404.49 190.12 404.37 192.18C404.15 196 410.09 195.49 413.42 196.31C415.73 196.72 412.08 208.81 414.57 205.62C416.29 203.42 418.14 197.97 418.23 191.96C418.3 187.49 414.25 189.05 413.66 189.16" fill="white"/>
<path d="M388.47 271.23C387.36 271.06 382.35 269.26 382.23 271.32C382.01 275.14 387.95 274.63 391.28 275.45C393.59 275.86 389.94 287.95 392.43 284.76C394.15 282.56 396 277.11 396.09 271.1C396.16 266.63 392.11 268.19 391.52 268.3" fill="white"/>
<path d="M408.09 222C406.98 221.83 401.97 220.03 401.85 222.09C401.63 225.91 407.57 225.4 410.9 226.22C413.21 226.63 409.56 238.72 412.05 235.53C413.77 233.33 415.62 227.88 415.71 221.87C415.78 217.4 411.73 218.96 411.14 219.07" fill="white"/>
<path d="M462.71 286.44C461.6 286.27 456.59 284.47 456.47 286.53C456.25 290.35 462.19 289.84 465.52 290.66C467.83 291.07 464.18 303.16 466.67 299.97C468.39 297.77 470.24 292.32 470.33 286.31C470.4 281.84 466.35 283.4 465.76 283.51" fill="white"/>
<path d="M478.03 291.99C476.92 291.82 471.91 290.02 471.79 292.08C471.57 295.9 477.51 295.39 480.84 296.21C483.15 296.62 479.5 308.71 481.99 305.52C483.71 303.32 485.56 297.87 485.65 291.86C485.72 287.39 481.67 288.95 481.08 289.06" fill="white"/>
<path d="M477.61 257.29C476.5 257.12 471.66 246.5 453.58 251.28C446.59 253.13 456.55 254.14 457.7 267.93C460.01 268.34 459.14 261.67 461.63 258.48C463.35 256.28 475.04 277.78 475.12 271.76C475.19 267.29 478.19 257.17 477.61 257.29Z" fill="white"/>
<path d="M346.37 115.85C345.26 115.68 342.42 115.72 342.3 117.78C342.08 121.6 340.95 122.91 344.28 123.72C346.59 124.13 346.61 126.41 349.1 123.22C350.82 121.02 352.95 124.82 353.04 118.8C353.11 114.33 349.51 115.16 348.93 115.28M350.13 120.4C348.12 117.07 347.36 122.69 346.04 122.33C344.68 121.08 344.07 120.16 345.1 118.97C346.42 117.45 348.47 117.26 349.67 116.99C351.05 117.94 351.16 122.11 350.13 120.4Z" fill="white"/>
<path d="M342.62 107.8C343.76 106.08 347.02 106.53 351.81 106.92C353.17 107.03 354.76 99.6 356.5 100.7C359.62 102.68 357.41 107.41 356.26 109.56C354.25 113.32 340.2 111.43 342.62 107.8Z" fill="white"/>
<path d="M416.02 282.45C417.16 280.73 420.42 281.18 425.21 281.57C426.57 281.68 428.16 274.25 429.9 275.35C433.02 277.33 430.81 282.06 429.66 284.21C427.65 287.97 413.6 286.08 416.02 282.45Z" fill="white"/>
<path d="M363.64 87.54C364.78 85.82 368.04 86.27 372.83 86.66C374.19 86.77 375.78 79.34 377.52 80.44C380.64 82.42 378.43 87.15 377.28 89.3C375.27 93.06 361.22 91.17 363.64 87.54Z" fill="white"/>
<path d="M447.92 332.39C449.06 330.67 452.32 331.12 457.11 331.51C458.47 331.62 460.06 324.19 461.8 325.29C464.92 327.27 462.71 332 461.56 334.15C459.55 337.91 445.5 336.02 447.92 332.39Z" fill="white"/>
<path d="M359.12 125C360.26 123.28 363.52 123.73 368.31 124.12C369.67 124.23 371.26 116.8 373 117.9C376.12 119.88 373.91 124.61 372.76 126.76C370.75 130.52 356.7 128.63 359.12 125Z" fill="white"/>
<path d="M251.03 154.08C252.17 152.36 255.43 152.81 260.22 153.2C261.58 153.31 263.17 145.88 264.91 146.98C268.03 148.96 265.82 153.69 264.67 155.84C262.66 159.6 248.61 157.71 251.03 154.08Z" fill="white"/>
<path d="M277.85 184.07C278.99 182.35 282.25 182.8 287.04 183.19C288.4 183.3 289.99 175.87 291.73 176.97C294.85 178.95 292.64 183.68 291.49 185.83C289.48 189.59 275.43 187.7 277.85 184.07Z" fill="white"/>
<path d="M319.07 225.41C321.13 225.51 330.67 222.1 330.79 220.73C330.91 219.36 328.19 220.54 327.03 218.84C325.37 216.41 324.57 221.03 322.6 221.93C319.36 223.41 315.27 225.21 319.08 225.41H319.07Z" fill="white"/>
<path d="M305.99 138.18C307.13 136.46 315.54 130.82 316.71 131.53C317.88 132.24 315.32 133.73 316 135.68C316.97 138.46 312.78 136.36 310.88 137.41C307.76 139.14 303.89 141.36 305.99 138.18Z" fill="white"/>
<path d="M78.4099 120.97C79.5499 119.25 87.9599 113.61 89.1299 114.32C90.2999 115.03 87.7399 116.52 88.4199 118.47C89.3899 121.25 85.1999 119.15 83.2999 120.2C80.1799 121.93 76.3099 124.15 78.4099 120.97Z" fill="white"/>
<path d="M308.57 150.64C309.71 148.92 318.12 143.28 319.29 143.99C320.46 144.7 317.9 146.19 318.58 148.14C319.55 150.92 315.36 148.82 313.46 149.87C310.34 151.6 306.47 153.82 308.57 150.64Z" fill="white"/>
<path d="M362.54 194.33C364.16 195.05 371.14 196.12 370.96 195.33C370.78 194.54 368.77 194.35 367.46 192.92C365.58 190.87 365.93 193.47 364.55 193.38C362.33 193.24 359.6 193.03 362.55 194.33H362.54Z" fill="white"/>
<path d="M388.47 166.37C389.61 164.65 398.02 159.01 399.19 159.72C400.36 160.43 397.8 161.92 398.48 163.87C399.45 166.65 395.26 164.55 393.36 165.6C390.24 167.33 386.37 169.55 388.47 166.37Z" fill="white"/>
<path d="M388.79 212.03C389.93 210.31 398.34 204.67 399.51 205.38C400.68 206.09 398.12 207.58 398.8 209.53C399.77 212.31 395.58 210.21 393.68 211.26C390.56 212.99 386.69 215.21 388.79 212.03Z" fill="white"/>
<path d="M411.06 181.97C412.2 180.25 420.61 174.61 421.78 175.32C422.95 176.03 420.39 177.52 421.07 179.47C422.04 182.25 417.85 180.15 415.95 181.2C412.83 182.93 408.96 185.15 411.06 181.97Z" fill="white"/>
<path d="M399.15 217.01C400.29 215.29 408.7 209.65 409.87 210.36C411.04 211.07 408.48 212.56 409.16 214.51C410.13 217.29 405.94 215.19 404.04 216.24C400.92 217.97 397.05 220.19 399.15 217.01Z" fill="white"/>
<path d="M421.98 200.03C423.12 198.31 431.53 192.67 432.7 193.38C433.87 194.09 431.31 195.58 431.99 197.53C432.96 200.31 428.77 198.21 426.87 199.26C423.75 200.99 419.88 203.21 421.98 200.03Z" fill="white"/>
<path d="M419.43 212.85C420.57 211.13 428.98 205.49 430.15 206.2C431.32 206.91 428.76 208.4 429.44 210.35C430.41 213.13 426.22 211.03 424.32 212.08C421.2 213.81 417.33 216.03 419.43 212.85Z" fill="white"/>
<path d="M368.94 200.44C370.59 201.19 377.81 202.5 377.66 201.74C377.51 200.98 375.42 200.71 374.13 199.3C372.27 197.26 372.51 199.76 371.07 199.62C368.76 199.4 365.93 199.08 368.94 200.45V200.44Z" fill="white"/>
<path d="M368.61 138.54C370.47 137.66 376.12 132 377.29 132.71C378.46 133.42 371.42 138.43 377.29 137.17C381.53 136.26 377.87 139.31 376.66 139.97C371.97 142.51 366.12 139.72 368.61 138.54Z" fill="white"/>
<path d="M477.89 315.05C479.75 314.17 485.4 308.51 486.57 309.22C487.74 309.93 480.7 314.94 486.57 313.68C490.81 312.77 487.15 315.82 485.94 316.48C481.25 319.02 475.4 316.23 477.89 315.05Z" fill="white"/>
<path d="M342.47 134.66C343.61 132.94 352.02 127.3 353.19 128.01C354.36 128.72 351.8 130.21 352.48 132.16C353.45 134.94 349.26 132.84 347.36 133.89C344.24 135.62 340.37 137.84 342.47 134.66Z" fill="white"/>
<path d="M341.68 144.46C342.82 142.74 351.23 137.1 352.4 137.81C353.57 138.52 351.01 140.01 351.69 141.96C352.66 144.74 348.47 142.64 346.57 143.69C343.45 145.42 339.58 147.64 341.68 144.46Z" fill="white"/>
<path d="M327.27 130.64C329.13 129.76 334.78 124.1 335.95 124.81C337.12 125.52 330.08 130.53 335.95 129.27C340.19 128.36 336.53 131.41 335.32 132.07C330.63 134.61 324.78 131.82 327.27 130.64Z" fill="white"/>
<path d="M43.4798 128.67C45.3398 127.79 50.9898 122.13 52.1598 122.84C53.3298 123.55 46.2898 128.56 52.1598 127.3C56.3998 126.39 52.7398 129.44 51.5298 130.1C46.8398 132.64 40.9898 129.85 43.4798 128.67Z" fill="white"/>
<path d="M338.15 148.29C339.29 146.57 341.04 145.68 342.21 146.4C343.38 147.12 342.77 149.18 342.94 151.24C343.35 156.44 340.16 148.97 335.9 156.03C334.06 159.08 336.05 151.47 338.16 148.29H338.15Z" fill="white"/>
<path d="M355.59 145.68C356.73 143.96 365.14 138.32 366.31 139.03C367.48 139.74 364.92 141.23 365.6 143.18C366.57 145.96 362.38 143.86 360.48 144.91C357.36 146.64 353.49 148.86 355.59 145.68Z" fill="white"/>
<path d="M349.11 151.3C350.86 150.22 359.28 152.85 359.88 154.08C360.48 155.31 360.85 156.02 359.84 157.81C358.39 160.38 353.76 154.14 350.93 154.82C347.84 155.56 344.64 154.06 349.11 151.29V151.3Z" fill="white"/>
<path d="M372.2 146.79C373.34 145.07 375.09 144.18 376.26 144.9C377.43 145.62 376.37 147.77 376.99 149.74C377.81 152.39 374.72 144.35 369.95 154.53C368.44 157.76 370.1 149.97 372.21 146.79H372.2Z" fill="white"/>
<path d="M363.37 169.52C362.31 169.07 359.76 168.28 360.19 169.83C360.97 172.65 360.31 173.29 363.44 174.87C365.6 175.87 366.16 177.55 367.67 175.96C368.74 174.83 371.61 178.36 370.32 173.81C369.32 170.3 366.11 169.89 365.59 169.81" fill="white"/>
<path d="M349.25 166.1C348.3 165.68 346.02 164.98 346.52 166.46C347.43 169.16 346.9 169.79 349.75 171.26C351.71 172.18 352.33 173.79 353.5 172.23C354.34 171.12 357.11 174.46 355.61 170.1C354.46 166.75 351.65 166.41 351.19 166.35" fill="white"/>
<path d="M362.61 177.06C361.61 176.61 359.19 175.79 359.6 177.22C360.35 179.81 359.73 180.37 362.7 181.93C364.75 182.93 365.29 184.47 366.71 183.09C367.72 182.1 370.44 185.42 369.19 181.24C368.23 178.02 365.19 177.52 364.71 177.43" fill="white"/>
<path d="M266.66 137.66C265.66 137.21 263.24 136.39 263.65 137.82C264.4 140.41 263.78 140.97 266.75 142.53C268.8 143.53 269.34 145.07 270.76 143.69C271.77 142.7 274.49 146.02 273.24 141.84C272.28 138.62 269.24 138.12 268.76 138.03" fill="white"/>
<path d="M384.84 199.44C383.78 198.93 381.19 197.92 381.45 199.18C381.92 201.47 381.15 201.86 384.26 203.57C386.42 204.68 386.8 206.06 388.58 205.08C389.85 204.38 392.43 207.54 391.62 203.84C391 200.99 387.67 200.17 387.14 200.03" fill="white"/>
<path d="M423.1 232.43C421.91 231.81 418.93 230.48 418.94 231.54C418.95 233.46 417.89 233.62 421.33 235.61C423.74 236.93 423.87 238.11 426.34 237.68C428.1 237.38 430.52 240.42 430.45 237.3C430.39 234.9 426.45 233.58 425.82 233.36" fill="white"/>
<path d="M443.76 263.17C442.57 262.55 439.59 261.22 439.6 262.28C439.61 264.2 438.55 264.36 441.99 266.35C444.4 267.67 444.53 268.85 447 268.42C448.76 268.12 451.18 271.16 451.11 268.04C451.05 265.64 447.11 264.32 446.48 264.1" fill="white"/>
<path d="M425.68 263.17C424.49 262.55 421.51 261.22 421.52 262.28C421.53 264.2 420.47 264.36 423.91 266.35C426.32 267.67 426.45 268.85 428.92 268.42C430.68 268.12 433.1 271.16 433.03 268.04C432.97 265.64 429.03 264.32 428.4 264.1" fill="white"/>
<path d="M412.15 246.46C410.96 245.84 407.98 244.51 407.99 245.57C408 247.49 406.94 247.65 410.38 249.64C412.79 250.96 412.92 252.14 415.39 251.71C417.15 251.41 419.57 254.45 419.5 251.33C419.44 248.93 415.5 247.61 414.87 247.39" fill="white"/>
<path d="M402.84 282.75C401.65 282.13 398.67 280.8 398.68 281.86C398.69 283.78 397.63 283.94 401.07 285.93C403.48 287.25 403.61 288.43 406.08 288C407.84 287.7 410.26 290.74 410.19 287.62C410.13 285.22 406.19 283.9 405.56 283.68" fill="white"/>
<path d="M471.36 319.19C470.17 318.57 467.19 317.24 467.2 318.3C467.21 320.22 466.15 320.38 469.59 322.37C472 323.69 472.13 324.87 474.6 324.44C476.36 324.14 478.78 327.18 478.71 324.06C478.65 321.66 474.71 320.34 474.08 320.12" fill="white"/>
<path d="M400.26 251.98C399.15 251.81 396.31 251.85 396.19 253.91C395.97 257.73 394.84 259.04 398.17 259.85C400.48 260.26 400.5 262.54 402.99 259.35C404.71 257.15 406.84 260.95 406.93 254.93C407 250.46 403.4 251.29 402.82 251.41M404.02 256.53C402.01 253.2 401.25 258.82 399.93 258.46C398.57 257.21 397.96 256.29 398.99 255.1C400.31 253.58 402.36 253.39 403.56 253.12C404.94 254.07 405.05 258.24 404.02 256.53ZM438.21 288.66C436.2 285.33 435.44 290.95 434.12 290.59C432.76 289.34 432.15 288.42 433.18 287.23C434.5 285.71 436.55 285.52 437.75 285.25C439.13 286.2 439.24 290.37 438.21 288.66ZM433.93 301.24C431.92 297.91 431.16 303.53 429.84 303.17C428.48 301.92 427.87 301 428.9 299.81C430.22 298.29 432.27 298.1 433.47 297.83C434.85 298.78 434.96 302.95 433.93 301.24Z" fill="white"/>
<path d="M360.74 160.14C361.88 158.42 365.14 158.87 369.93 159.26C371.29 159.37 372.88 151.94 374.62 153.04C377.74 155.02 375.53 159.75 374.38 161.9C372.37 165.66 358.32 163.77 360.74 160.14Z" fill="white"/>
<path d="M360.04 232.84C361.18 231.12 364.44 231.57 369.23 231.96C370.59 232.07 372.18 224.64 373.92 225.74C377.04 227.72 374.83 232.45 373.68 234.6C371.67 238.36 357.62 236.47 360.04 232.84Z" fill="white"/>
<path d="M355.27 245.85C356.41 244.13 359.67 244.58 364.46 244.97C365.82 245.08 367.41 237.65 369.15 238.75C372.27 240.73 370.06 245.46 368.91 247.61C366.9 251.37 352.85 249.48 355.27 245.85Z" fill="white"/>
<path d="M403.69 148.76C404.83 147.04 408.09 147.49 412.88 147.88C414.24 147.99 415.83 140.56 417.57 141.66C420.69 143.64 418.48 148.37 417.33 150.52C415.32 154.28 401.27 152.39 403.69 148.76Z" fill="white"/>
<path d="M408.14 169.18C409.28 167.46 412.54 167.91 417.33 168.3C418.69 168.41 420.28 160.98 422.02 162.08C425.14 164.06 422.93 168.79 421.78 170.94C419.77 174.7 405.72 172.81 408.14 169.18Z" fill="white"/>
<path d="M217.56 117.7C217.22 118.13 216.69 119.46 218.23 120.59C221.17 122.75 221.98 124.01 223.32 122.88C224.13 122 226.03 123.27 223.9 120.3C222.47 118.3 226.01 119.31 221.15 116.1C217.71 113.83 217.65 115.91 217.62 116.23" fill="white"/>
<path d="M205.49 120.87C205.15 121.3 204.62 122.63 206.16 123.76C209.1 125.92 209.91 127.18 211.25 126.05C212.06 125.17 213.96 126.44 211.83 123.47C210.4 121.47 213.94 122.48 209.08 119.27C205.64 117 205.58 119.08 205.55 119.4" fill="white"/>
<path d="M241.47 121.29C238.43 120.66 242.89 123.76 242.34 124.22C241.06 124.26 240.21 124.09 239.43 123.01C238.44 121.65 238.64 120.58 238.63 119.89C239.63 119.67 243.07 121.62 241.47 121.29Z" fill="white"/>
<path d="M92.9499 112.63C89.9099 112 94.3699 115.1 93.8199 115.56C92.5399 115.6 91.6899 115.43 90.9099 114.35C89.9199 112.99 90.1199 111.92 90.1099 111.23C91.1099 111.01 94.5499 112.96 92.9499 112.63Z" fill="white"/>
<path d="M74.2101 118.78C71.1701 118.15 75.6301 121.25 75.0801 121.71C73.8001 121.75 72.9501 121.58 72.1701 120.5C71.1801 119.14 71.3801 118.07 71.3701 117.38C72.3701 117.16 75.8101 119.11 74.2101 118.78Z" fill="white"/>
<path d="M62.82 119.21C64.1 117.64 70.57 113.18 70.94 113.98C71.31 114.78 69.44 115.93 69.11 117.91C68.63 120.81 67.14 118.2 65.73 119.02C63.39 120.39 60.4 122.19 62.81 119.21H62.82Z" fill="white"/>
<path d="M252.61 132.65C251.22 131.08 247.69 123.8 248.54 123.58C249.39 123.36 250.27 125.43 252.19 126.12C255.01 127.14 252.2 128.14 252.83 129.7C253.86 132.29 255.24 135.61 252.61 132.65Z" fill="white"/>
<path d="M250.65 138.06C249.9 136.31 255 133.55 256.58 134.11C258.16 134.67 259.13 134.99 261.03 136.92C263.82 139.75 255.06 137.59 255.11 139.69C255.17 142 252.61 142.61 250.65 138.05V138.06Z" fill="white"/>
<path d="M52.8399 132.95C52.0899 131.2 57.1899 128.44 58.7699 129C60.3499 129.56 61.3199 129.88 63.2199 131.81C66.0099 134.64 57.2499 132.48 57.2999 134.58C57.3599 136.89 54.7999 137.5 52.8399 132.94V132.95Z" fill="white"/>
<path d="M62.9898 125.2C62.2398 123.45 67.3398 120.69 68.9198 121.25C70.4998 121.81 71.4698 122.13 73.3698 124.06C76.1598 126.89 67.3998 124.73 67.4498 126.83C67.5098 129.14 64.9498 129.75 62.9898 125.19V125.2Z" fill="white"/>
<path d="M251.45 122.29C249.86 120.59 249.34 119.09 250.39 118.89C251.44 118.69 253.58 120.61 255.96 121.52C259.26 122.78 249.42 119.4 259.74 128.72C263.27 131.91 254.46 125.52 251.45 122.29Z" fill="white"/>
<path d="M57.34 124.53C55.75 122.83 55.23 121.33 56.28 121.13C57.33 120.93 59.47 122.85 61.85 123.76C65.15 125.02 55.31 121.64 65.63 130.96C69.16 134.15 60.35 127.76 57.34 124.53Z" fill="white"/>
<path d="M297.48 140.37C297.38 140.64 297.61 141.7 299.73 143.39C303.83 146.67 305.34 148.21 306.11 147.72C306.48 147.24 309.17 149.31 305.32 145.49C302.74 142.93 307.01 145.45 300.16 140.23C295.46 136.65 296.57 138.66 296.73 138.96" fill="white"/>
<path d="M282.78 134.23C282.73 134.5 283.03 135.54 285 137.13C288.82 140.2 290.26 141.66 290.85 141.15C291.11 140.66 293.6 142.59 289.94 138.98C287.49 136.56 291.36 138.86 285.03 134C280.68 130.66 281.83 132.59 281.99 132.89" fill="white"/>
<path d="M270.09 130.22C270.04 130.49 270.34 131.53 272.31 133.12C276.13 136.19 277.57 137.65 278.16 137.14C278.42 136.65 280.91 138.58 277.25 134.97C274.8 132.55 278.67 134.85 272.34 129.99C267.99 126.65 269.14 128.58 269.3 128.88" fill="white"/>
<path d="M287.74 144.67C287.68 144.91 287.94 145.83 289.82 147.36C293.48 150.32 294.84 151.71 295.45 151.3C295.73 150.89 298.11 152.76 294.63 149.34C292.3 147.05 296.03 149.34 289.97 144.63C285.8 141.4 286.86 143.17 287.01 143.44" fill="white"/>
<path d="M274.03 150.27C273.46 150.8 272.67 152.57 275.55 154.45C281.09 158.08 282.72 160.03 285.03 158.69C286.42 157.61 290.06 159.8 285.8 155.14C282.95 152.03 289.57 154.14 280.31 148.68C273.89 144.89 274 147.78 273.99 148.23" fill="white"/>
<path d="M248.59 172.03C248.02 172.56 247.23 174.33 250.11 176.21C255.65 179.84 257.28 181.79 259.59 180.45C260.98 179.37 264.62 181.56 260.36 176.9C257.51 173.79 264.13 175.9 254.87 170.44C248.45 166.65 248.56 169.54 248.55 169.99" fill="white"/>
<path d="M304.64 143.84C299.05 142.46 307.47 147.54 306.51 148.09C304.17 147.92 302.6 147.54 301.07 145.9C299.15 143.84 299.42 142.39 299.34 141.42C301.13 141.28 307.6 144.56 304.63 143.84H304.64Z" fill="white"/>
<path d="M260.3 115.02C254.71 113.64 263.13 118.72 262.17 119.27C259.83 119.1 258.26 118.72 256.73 117.08C254.81 115.02 255.08 113.57 255 112.6C256.79 112.46 263.26 115.74 260.29 115.02H260.3Z" fill="white"/>
<path d="M300.69 196.66C295.18 194.99 303.32 200.51 302.33 201.01C300 200.71 298.45 200.25 297.01 198.53C295.21 196.37 295.54 194.93 295.52 193.97C297.31 193.92 303.6 197.55 300.68 196.66H300.69Z" fill="white"/>
<path d="M294.93 134.14C293.09 132.4 293.28 131.42 293.29 129.74C293.29 129.25 285.81 123.37 286.68 123.38C288.3 123.39 293.34 127.73 295.75 129.85C300.13 133.71 298.95 137.94 294.94 134.14H294.93Z" fill="white"/>
<path d="M284.1 129.39C282.26 127.65 282.45 126.67 282.46 124.99C282.46 124.5 274.98 118.62 275.85 118.63C277.47 118.64 282.51 122.98 284.92 125.1C289.3 128.96 288.12 133.19 284.11 129.39H284.1Z" fill="white"/>
<path d="M72.8897 141.29C71.0497 139.55 71.2397 138.57 71.2497 136.89C71.2497 136.4 63.7697 130.52 64.6397 130.53C66.2597 130.54 71.2997 134.88 73.7097 137C78.0897 140.86 76.9097 145.09 72.8997 141.29H72.8897Z" fill="white"/>
<path d="M425.99 230.45C424.16 228.46 425.61 226.92 427.41 224.41C427.93 223.69 423.3 218.66 425.05 218.41C428.26 217.97 429.59 221.48 432.08 223.75C436.59 227.88 429.99 234.78 426 230.44L425.99 230.45Z" fill="white"/>
<path d="M437.49 236.02C435.66 234.03 437.11 232.49 438.91 229.98C439.43 229.26 434.8 224.23 436.55 223.98C439.76 223.54 441.09 227.05 443.58 229.32C448.09 233.45 441.49 240.35 437.5 236.01L437.49 236.02Z" fill="white"/>
<path d="M432.65 256.23C430.82 254.24 432.27 252.7 434.07 250.19C434.59 249.47 429.96 244.44 431.71 244.19C434.92 243.75 436.25 247.26 438.74 249.53C443.25 253.66 436.65 260.56 432.66 256.22L432.65 256.23Z" fill="white"/>
<path d="M463.1 278.95C461.27 276.96 462.72 275.42 464.52 272.91C465.04 272.19 460.41 267.16 462.16 266.91C465.37 266.47 466.7 269.98 469.19 272.25C473.7 276.38 467.1 283.28 463.11 278.94L463.1 278.95Z" fill="white"/>
<path d="M265.45 122.9C263.62 120.91 265.07 119.37 266.87 116.86C267.39 116.14 262.76 111.11 264.51 110.86C267.72 110.42 269.05 113.93 271.54 116.2C276.05 120.33 269.45 127.23 265.46 122.89L265.45 122.9Z" fill="white"/>
<path d="M457.63 311.96C455.8 309.97 457.25 308.43 459.05 305.92C459.57 305.2 450.93 299.04 452.69 298.8C455.9 298.36 461.24 302.99 463.72 305.26C468.23 309.39 461.63 316.29 457.64 311.95L457.63 311.96Z" fill="white"/>
<path d="M447.92 291.15C446.09 289.16 447.54 287.62 449.34 285.11C449.86 284.39 441.22 278.23 442.98 277.99C446.19 277.55 451.53 282.18 454.01 284.45C458.52 288.58 451.92 295.48 447.93 291.14L447.92 291.15Z" fill="white"/>
<path d="M284.24 208.02C282.41 206.03 283.86 204.49 285.66 201.98C286.18 201.26 277.54 195.1 279.3 194.86C282.51 194.42 287.85 199.05 290.33 201.32C294.84 205.45 288.24 212.35 284.25 208.01L284.24 208.02Z" fill="white"/>
<path d="M237.41 164.13C235.58 162.14 237.03 160.6 238.83 158.09C239.35 157.37 230.71 151.21 232.47 150.97C235.68 150.53 241.02 155.16 243.5 157.43C248.01 161.56 241.41 168.46 237.42 164.12L237.41 164.13Z" fill="white"/>
<path d="M397.85 290.22L394.03 288.13C253.1 226.26 227.02 162.9 186.23 113.57C176.64 101.97 166.23 91.15 153.32 81.3L151.18 80.66C134.83 78.07 118.83 89.44 103.07 108.17C94.7098 118.11 86.4198 130.11 78.1898 143.21L74.6198 148.06C65.9398 132.23 52.4098 141.17 52.4098 141.17C54.3198 146.91 45.6398 148.83 44.7498 139.26L39.6398 132.24L37.7298 138.5C30.9598 138.88 27.8998 145.27 27.8998 145.27L8.23978 144.38C-1.33022 143.36 0.679783 149.26 0.679783 149.26C63.3098 223.94 95.1998 224.26 156.99 233.84L168.49 236.64C217.47 263.3 281.37 255.8 313.3 272.2C313.3 272.2 385.64 278.9 420.27 319.34L417.17 316.12L405.32 300.59C420.26 300.4 406.28 290.82 397.85 290.25V290.22Z" fill="url(#paint3_linear_38_11748)" stroke="white" stroke-miterlimit="10"/>
<path d="M104.11 182.1L107.17 186.25L105.64 193.11L103.07 190.56L104.11 182.1Z" fill="#1F324F"/>
<path d="M134.17 208.14L137.24 212.29L135.71 219.15L133.14 216.6L134.17 208.14Z" fill="#1F324F"/>
<path d="M118.66 193.32L121.73 197.47L120.19 204.33L117.63 201.78L118.66 193.32Z" fill="#1F324F"/>
<path d="M44.7496 139.27C43.5596 132.7 51.8396 136.27 52.4096 141.18C52.9796 146.09 46.5796 149.36 44.7496 139.27Z" fill="#C5C4CE" stroke="white" stroke-miterlimit="10"/>
<path d="M48.2082 142.726C48.5922 142.647 48.7328 141.758 48.5222 140.741C48.3117 139.725 47.8297 138.965 47.4457 139.044C47.0618 139.124 46.9212 140.013 47.1317 141.029C47.3423 142.046 47.8242 142.806 48.2082 142.726Z" fill="#010101"/>
</g>
<defs>
<linearGradient id="paint0_linear_38_11748" x1="399.48" y1="306.85" x2="834.47" y2="306.85" gradientUnits="userSpaceOnUse">
<stop offset="0.58" stop-color="#08162A"/>
<stop offset="0.99" stop-color="#678CC8"/>
</linearGradient>
<linearGradient id="paint1_linear_38_11748" x1="84.1696" y1="142.56" x2="66.3396" y2="111.68" gradientUnits="userSpaceOnUse">
<stop stop-color="#15103E"/>
<stop offset="0.43" stop-color="#15113F"/>
<stop offset="0.58" stop-color="#161746"/>
<stop offset="0.69" stop-color="#182152"/>
<stop offset="0.78" stop-color="#1B2F63"/>
<stop offset="0.85" stop-color="#1F4179"/>
<stop offset="0.92" stop-color="#245794"/>
<stop offset="0.98" stop-color="#2972B4"/>
<stop offset="1" stop-color="#2C7CC0"/>
</linearGradient>
<linearGradient id="paint2_linear_38_11748" x1="497.23" y1="375.95" x2="305.87" y2="44.5" gradientUnits="userSpaceOnUse">
<stop stop-color="#15103E"/>
<stop offset="0.43" stop-color="#15113F"/>
<stop offset="0.58" stop-color="#161746"/>
<stop offset="0.69" stop-color="#182152"/>
<stop offset="0.78" stop-color="#1B2F63"/>
<stop offset="0.85" stop-color="#1F4179"/>
<stop offset="0.92" stop-color="#245794"/>
<stop offset="0.98" stop-color="#2972B4"/>
<stop offset="1" stop-color="#2C7CC0"/>
</linearGradient>
<linearGradient id="paint3_linear_38_11748" x1="0.499783" y1="199.81" x2="420.27" y2="199.81" gradientUnits="userSpaceOnUse">
<stop stop-color="white"/>
<stop offset="1" stop-color="#004F7F"/>
</linearGradient>
<clipPath id="clip0_38_11748">
<rect width="834.64" height="373.71" fill="white"/>
</clipPath>
</defs>
</svg>
