<svg width="2065" height="2982" viewBox="0 0 2065 2982" fill="none" xmlns="http://www.w3.org/2000/svg">
<path d="M1452.12 182.171C1371.99 -33.406 1261.66 35.7055 1261.66 35.7055C1261.66 35.7055 1182.37 46.3719 1158.22 148.849C1250.2 216.154 1358.06 302.851 1471.86 402.199C1480.63 330.179 1478.43 252.913 1452.12 182.171Z" fill="#6FFFE9"/>
<path d="M1416.5 624.035C1411.79 619.848 1407.11 615.705 1402.4 611.473C1325.44 542.362 1253.73 474.528 1189.38 410.574C1192.68 420.535 1196.17 430.629 1200 441.119C1177.65 475.322 1134.72 550.251 1128.33 629.236C1122.16 705.62 1205.69 629.28 1254.57 578.681C1275.72 635.539 1291.9 690.37 1304.02 743.349C1341.71 707.515 1377.98 673.929 1412.58 642.723C1413.81 636.464 1415.05 630.206 1416.5 623.991V624.035Z" fill="#6FFFE9"/>
<path d="M1412.27 1025.26C1405.7 1033.55 1399.23 1041.75 1392.48 1050.12C1437.66 1103.8 1427.08 1063.87 1412.27 1025.26Z" fill="#6FFFE9"/>
<path d="M1145.39 1541.04C1145.39 1541.04 1321.21 1339.57 1386.27 1057.83C1363.66 1086 1340.34 1114.65 1316.32 1143.83C1288.64 1293.64 1225.43 1424.64 1145.39 1541.04Z" fill="#6FFFE9"/>
<path d="M483.145 2043.25C487.817 2057.17 490.594 2065.33 490.594 2065.33L427.477 2236.17C427.477 2236.17 430.827 2230.61 436.909 2220.34C466.749 2171.55 557.414 2033.86 558.471 2160.88C559.706 2308.72 903.721 2779.76 928.491 2810.26C929.549 2895.41 936.601 3056.34 978.386 2840.01C1101.27 2910.62 1400.68 3077.71 1190.74 2906.04C930.871 2693.5 1012.1 2772.35 818.609 2461.18C696.871 2265.43 723.405 1964.39 759.812 1768.03C661.963 1869.72 568.697 1962.37 483.057 2043.29L483.145 2043.25Z" fill="#6FFFE9"/>
<path d="M937.748 1745.64C944.579 1708.4 937.307 1651.32 924.877 1592.65C899.974 1619.76 875.247 1646.25 850.741 1672.43C884.239 1740.4 926.332 1807.79 937.748 1745.64Z" fill="#6FFFE9"/>
<path d="M973.141 1076.92C1036.08 853.584 1038.77 674.678 910.905 630.602C509.327 492.203 362.817 1330.18 362.817 1330.18C255.183 1324.85 93.9083 1771.74 143.053 1747.76C166.899 1736.12 392.833 1517.72 364.14 1565.37C353.341 1583.27 368.503 1658.24 391.643 1744.89C505.228 1602.09 638.338 1444.6 784.362 1282C848.229 1210.87 911.39 1142.37 973.097 1076.96L973.141 1076.92Z" fill="#6FFFE9"/>
<path d="M1386.27 1057.79C1388.29 1055.23 1390.45 1052.63 1392.48 1050.12C1391.34 1048.75 1390.23 1047.47 1389.04 1045.98C1388.16 1049.94 1387.19 1053.87 1386.31 1057.79H1386.27Z" fill="#6FFFE9"/>
<path d="M7.65101 2381.09C47.0552 2416.48 232.219 2280.29 483.145 2043.25C465.823 1991.63 421.923 1858.3 391.643 1744.85C121.5 2084.41 -37.6153 2340.45 7.65101 2381.09Z" fill="#6FFFE9"/>
<path d="M1331.52 965.361C1330.69 895.236 1321.83 821.276 1304.02 743.349C1202.38 839.964 1090.34 952.711 973.141 1076.87C946.21 1172.39 908.348 1275.97 864.845 1380.65C876.79 1415.51 906.497 1505.82 924.877 1592.65C955.466 1559.42 986.275 1525.53 1017.22 1491.01C1124.76 1371.26 1225.39 1254.19 1316.32 1143.78C1323.15 1106.76 1327.91 1068.59 1330.11 1029.18C1310.63 1045.36 1282.34 1061.18 1331.48 965.317L1331.52 965.361Z" fill="#6FFFE9"/>
<path d="M759.944 1767.99C789.827 1736.96 820.108 1705.05 850.741 1672.43C826.234 1622.76 806.312 1572.82 806.312 1572.82C806.312 1572.82 781.409 1652.24 759.944 1768.03V1767.99Z" fill="#6FFFE9"/>
<path d="M1406.1 772.968C1401.65 729.377 1404.21 685.565 1412.58 642.723C1377.98 673.929 1341.75 707.515 1304.02 743.349C1321.83 821.232 1330.69 895.192 1331.52 965.361C1282.34 1061.23 1310.68 1045.4 1330.16 1029.23C1327.95 1068.63 1323.19 1106.76 1316.36 1143.83C1340.38 1114.65 1363.66 1086 1386.31 1057.83C1387.24 1053.91 1388.21 1049.99 1389.04 1046.02C1390.23 1047.47 1391.38 1048.8 1392.48 1050.16C1399.18 1041.79 1405.66 1033.59 1412.27 1025.3C1407.78 1013.54 1402.88 1001.94 1399.05 993.129C1410.2 923.224 1413.9 849.352 1406.1 773.012V772.968Z" fill="#0B132B" stroke="#0B132B" stroke-miterlimit="10"/>
<path d="M973.14 1076.92C911.389 1142.33 848.272 1210.87 784.406 1281.96C638.381 1444.56 505.271 1602.04 391.687 1744.85C421.967 1858.3 465.867 1991.63 483.189 2043.24C568.829 1962.32 662.138 1869.67 759.943 1767.99C781.408 1652.2 806.312 1572.78 806.312 1572.78C806.312 1572.78 826.234 1622.76 850.74 1672.39C875.291 1646.25 899.973 1619.72 924.876 1592.61C906.497 1505.82 876.789 1415.51 864.845 1380.6C908.348 1275.88 946.209 1172.34 973.14 1076.83V1076.92Z" fill="#0B132B"/>
<path d="M1430.61 575.639C1425.1 591.551 1420.38 607.683 1416.5 624.035C1419.32 626.547 1422.19 629.104 1425.01 631.616C1457.1 602.922 1487.73 576.212 1516.56 552.014C1499.72 545.05 1477.55 534.208 1448.5 518.164C1442.77 538.791 1436.69 558.141 1430.61 575.639Z" fill="#6FFFE9"/>
<path d="M1707.41 618.79C1677.43 666.657 1640.72 720.87 1598.36 779.977C1839.46 978.099 2031.41 1099.75 2061.07 1066.69C2091.62 1032.71 1941.14 845.694 1707.41 618.79Z" fill="#6FFFE9"/>
<path d="M1547.1 526.715C1558.74 517.238 1569.98 508.291 1580.95 499.696C1566.76 486.693 1552.43 473.691 1537.85 460.6C1515.67 440.678 1493.68 421.24 1471.86 402.199C1470.45 413.924 1468.73 425.56 1466.79 436.975C1493.11 463.157 1528.28 499.916 1547.15 526.715H1547.1Z" fill="#6FFFE9"/>
<path d="M1158.22 148.893C1008.36 39.2757 900.812 -18.6405 879.17 5.38109C850.609 37.2041 980.766 203.239 1189.34 410.574C1148.26 287.469 1145.04 204.606 1158.17 148.893H1158.22Z" fill="#6FFFE9"/>
<path d="M1416.5 624.035C1420.38 607.727 1425.1 591.551 1430.61 575.639C1436.69 558.141 1442.77 538.792 1448.5 518.164C1477.55 534.164 1499.72 545.05 1516.56 552.014C1526.96 543.287 1537.18 534.825 1547.15 526.715C1528.32 499.916 1493.11 463.157 1466.79 436.975C1468.73 425.56 1470.45 413.968 1471.86 402.199C1358.06 302.852 1250.2 216.11 1158.22 148.849C1145.08 204.562 1148.3 287.425 1189.38 410.53C1253.73 474.484 1325.44 542.318 1402.4 611.429C1407.12 615.66 1411.79 619.804 1416.5 623.991V624.035Z" fill="#0B132B"/>
<path d="M1793.93 391.93C1770.17 370.597 1693.26 411.764 1580.95 499.74C1569.98 508.335 1558.74 517.282 1547.1 526.759C1567.73 556.158 1568.57 573.524 1516.51 552.059C1487.69 576.256 1457.01 602.923 1424.97 631.66C1420.82 635.363 1416.72 639.021 1412.54 642.767C1404.16 685.61 1401.61 729.421 1406.06 773.013C1413.86 849.353 1410.16 923.268 1399 993.129C1402.84 1001.94 1407.73 1013.54 1412.23 1025.3C1482.35 937.064 1544.9 854.554 1598.32 780.021C1640.67 720.915 1677.39 666.701 1707.36 618.834C1784.41 495.729 1817.95 413.527 1793.93 391.974V391.93Z" fill="#6FFFE9" stroke="#0B132B" stroke-miterlimit="10"/>
<path d="M1547.1 526.715C1537.14 534.825 1526.96 543.243 1516.51 552.014C1568.52 573.479 1567.73 556.113 1547.1 526.715Z" fill="#0B132B"/>
</svg>
